<?xml version="1.0" encoding="utf-8"?>
<!-- Generator: Adobe Illustrator 22.0.1, SVG Export Plug-In . SVG Version: 6.00 Build 0)  -->
<svg version="1.1" id="Layer_1" xmlns="http://www.w3.org/2000/svg" xmlns:xlink="http://www.w3.org/1999/xlink" x="0px" y="0px"
	 viewBox="0 0 500 500" style="enable-background:new 0 0 500 500;" xml:space="preserve">
<style type="text/css">
	.st0{fill:#FFDA57;}
	.st1{fill:#FF643F;}
</style>
<g>
	<g>
		<path class="st0" d="M18.6,89c-1.2-2.8-1.3-5.9-2.1-8.8c-0.3,3.1-0.3,6.2-1,9.7c-0.5-1.6-0.4-2.8-0.5-3.9
			c-0.1-1.8-0.2-3.7-0.6-5.5c-0.2-0.9-0.4-1.3-1.5-1c-1.5,0.4-3.1,0.3-4.7,0.1c-0.7-0.1-1,0-1,0.9c0.2,2.5,0.2,5.1,0.2,7.6
			c0,0.6,0.1,1.2-0.4,1.8c-0.8-3.2-0.5-6.4-1.8-9.4c-0.1,3,0.1,6.1-0.4,9.2c-0.3-1.8-0.6-3.5-0.8-5.3c-0.2-1.9-0.7-3.8-1.2-5.7
			c-0.2-0.8-0.5-1.6-0.4-2.5C2.5,75.1,2.6,74,1,73.8c-0.5-0.1-0.8-0.6-0.9-1.1c-0.1-0.3-0.2-0.5,0-0.8c0.3-0.3,0.5,0,0.7,0.1
			c1.2,0.7,2.1,0.4,3-0.6c1.3-1.3,3-1.2,4.6-1.1c1.5,0.1,3-0.1,4.5-0.3c3.2-0.4,4.4-3,5.8-5.4c0.1-0.1,0.1-0.3,0-0.4
			c-0.3-0.5-0.9-1.1-0.3-1.5c0.5-0.3,0.9,0.4,1.2,0.8c0.2,0.2,0.4,0.3,0.7,0.1c0.3-0.2,0.2-0.5,0.1-0.7c-0.4-1.2-0.9-2.2-2.3-2.7
			c1.4-0.5,2.6,0.3,3.2,1.8c0.2,0.6,0.1,1.9,1.1,1.5c0.7-0.3,0-1.4-0.3-2C22,61,21.4,60.5,21,60c2-0.2,3.6,1.5,3,3.7
			c-0.4,1.7-0.2,3.2,0.8,4.6c0.2,0.3,0.4,0.7,0.5,1c0.2,0.5,0.1,0.9-0.3,1.3c-0.4,0.4-0.8,0.2-1.2-0.1c-1.2-0.7-1.8-0.3-2.4,0.8
			c-2.5,4.2-3.6,8.7-2.8,13.6C18.8,86.3,18.6,87.7,18.6,89z M15.3,73.8c-0.6-0.2-0.7-0.3-0.9-0.2c-0.8,0.2-1.7,0.8-1.7-0.9
			c0-0.5-0.8-0.7-1.3-0.5c-0.7,0.3-0.6,0.9-0.4,1.5c0.1,0.3,0.9,0.5,0.3,1c-0.3,0.2-0.7,0.4-1,0.3c-0.6-0.2-0.2-0.7-0.3-1.1
			c-0.1-0.7-0.1-1.5-1.1-1.4c-1.1,0.2-0.8,0.9-0.6,1.6c0,0.1,0,0.3,0,0.6c-0.5-0.4-0.9-0.9-1.4-1.2c-0.6-0.3-1.5-0.5-1.9,0.2
			c-0.4,0.7,0.2,1.3,0.8,1.7c0.6,0.5,1.3,0.3,2,0.5c-0.2,0.6-0.8,1.2,0,1.6c0.6,0.3,1.1-0.3,1.2-0.8c0.4-1,1.2-0.8,1.8-1
			c0.2,0.5-0.1,0.7-0.1,1c-0.1,0.4,0,0.8,0.4,1c0.3,0.2,0.6,0.2,0.9,0c0.3-0.3,0.5-0.7,0.3-1c-1.1-1.4,0.2-1.6,1-2.1
			C13.7,74.5,14.3,74.2,15.3,73.8z"/>
		<polygon class="st0" points="4.5,72.1 4,76.9 7.8,78.4 16.6,78 16.8,72.4 14,71 		"/>
	</g>
	<g>
		<path class="st0" d="M25.2,87.6l0.4,0c0.5,0,0.8,0.1,0.8,0.3c0,0.2,0,0.4-0.1,0.5s-0.2,0.1-0.4,0.1h-2.4c-0.4,0-0.6-0.1-0.6-0.4
			s0.2-0.4,0.6-0.4l0.6,0c0.1,0,0.1-0.3,0.1-1s-0.1-1.9-0.2-3.9s-0.2-3.4-0.2-4.4l0-1.9c0-0.4,0-0.8,0-1.1c-0.2,0.1-0.3,0.1-0.4,0.1
			c-0.3,0-0.4-0.2-0.4-0.5c0-0.2,0.1-0.3,0.3-0.4s0.4-0.2,0.7-0.2c0.5-0.1,0.9-0.1,1.2-0.1c0.3,0,0.4,0.1,0.6,0.2
			c0.1,0.1,0.2,0.2,0.2,0.4c0,0.1,0,0.3-0.1,0.4c-0.1,0.1-0.2,0.2-0.3,0.2l-0.3,0c-0.1,0-0.2,0-0.3,0.1c-0.1,0.1-0.1,0.2-0.1,0.3
			c0,1.2,0.1,3.1,0.2,5.6c0.2,2.5,0.2,4.3,0.2,5.6V87.6z"/>
		<path class="st0" d="M30.7,83.8l-0.3,0c-0.2,0-0.3,0-0.4-0.1s-0.2-0.2-0.2-0.4c0-0.2,0.1-0.3,0.2-0.4s0.3-0.1,0.4-0.1v0
			c1.2,0,1.9,0.2,1.9,0.6L32,84.8l0.1,2c0,0.4,0,0.7-0.1,0.9c-0.7,0.7-1.4,1-2,1c-0.3,0-0.6-0.1-0.8-0.2c-0.3-0.2-0.5-0.4-0.7-0.8
			c-0.2-0.4-0.5-1.2-0.6-2.3c-0.2-1.1-0.3-1.9-0.3-2.3c0-0.4,0-0.8,0-1.1c0-0.3,0-0.6,0.1-1s0.1-0.6,0.1-0.7c0-0.1,0-0.3,0-0.5
			c0-0.2,0-0.4,0-0.6c0-0.2,0-0.4,0.1-0.8s0.1-0.6,0.2-0.8s0.2-0.4,0.3-0.7c0.1-0.2,0.3-0.4,0.4-0.6c0.4-0.3,0.8-0.5,1.3-0.5
			c0.5,0,0.8,0.2,0.8,0.5c0,0.1-0.1,0.3-0.2,0.4C30.6,77,30.5,77,30.3,77L30,77c-0.4,0-0.7,0.4-0.8,1.3c-0.2,0.8-0.3,1.6-0.3,2.3
			c-0.1,1-0.1,1.7-0.1,2.1c0,0.3,0,0.6,0,0.8c0,0.2,0,0.4,0,0.7c0,0.3,0,0.5,0,0.8c0,0.2,0.1,0.5,0.1,0.7c0,0.3,0.1,0.5,0.1,0.7
			s0.1,0.4,0.2,0.6s0.2,0.4,0.3,0.5c0.2,0.3,0.5,0.4,0.8,0.4c0.6,0,0.8-1.1,0.8-3.2v-0.7C31,83.8,30.9,83.8,30.7,83.8z"/>
		<path class="st0" d="M38.3,83.5c0,3.7-0.7,5.5-2.2,5.5c-1.4,0-2.2-1.7-2.3-5.2c0-0.3,0-0.7,0-1l0-1.2v-0.4c0-2.7,0.4-4.4,1.2-5
			c0.2-0.2,0.4-0.2,0.6-0.3c0.2,0.1,0.4,0.1,0.7,0.2c0.3,0.1,0.5,0.1,0.6,0.2c0.2,0.1,0.5,0.4,0.7,0.8c0.3,0.4,0.5,1,0.6,1.8
			c0.1,0.7,0.2,1.5,0.2,2.2V83.5z M34.8,79l0,1.1l0,1.8c0,0.2,0,0.3,0,0.6c0,0.2,0,0.5,0,0.8c0,0.3,0,0.7,0.1,1
			c0,0.3,0.1,0.7,0.1,1.1c0,0.4,0.1,0.7,0.1,1c0.1,0.3,0.1,0.6,0.2,0.9c0.2,0.6,0.4,0.8,0.7,0.8c0.4,0,0.6-0.3,0.8-1
			c0.3-1,0.4-2.3,0.4-3.8l0-2c0-1.4-0.1-2.3-0.2-2.8c-0.1-0.5-0.2-0.8-0.3-1.1c-0.2-0.5-0.5-0.7-1-0.7c0,0,0,0,0,0
			C35.1,76.8,34.8,77.6,34.8,79z"/>
		<path class="st0" d="M44.6,85.6L44.5,86c0,0.2,0.1,0.5,0.2,1.1c0.1,0.6,0.2,1,0.2,1.2v0c0,0.3-0.1,0.5-0.3,0.5
			c-0.3,0-0.5,0-0.6-0.1c-0.1-0.1-0.2-0.3-0.2-0.7c0-0.4-0.1-1.1-0.3-2.2l-0.6-0.1h-0.6c-0.1-0.1-0.4-0.1-0.8-0.1c0,0,0,0.1,0,0.2
			c0,0.2,0,0.3,0,0.4c0,0.1,0,0.2,0,0.4s0,0.3-0.1,0.5c0,0.1-0.1,0.3-0.1,0.4c0,0.2-0.1,0.3-0.1,0.4c0,0.1-0.1,0.2-0.2,0.3
			c-0.1,0.2-0.2,0.3-0.4,0.3s-0.3,0-0.4-0.1s-0.2-0.2-0.2-0.4c0.3-1.3,0.6-2.6,0.9-4s0.4-2.2,0.4-2.5c0-0.3,0.2-0.8,0.3-1.5
			s0.3-1.3,0.3-1.5c0-0.3,0.1-0.6,0.1-1c0.1-0.9,0.2-1.5,0.3-1.7h0.6c0.4,0,0.7,0.1,0.7,0.4c0,2.5,0.2,4.9,0.7,7.3
			c0,0.1,0.1,0.3,0.1,0.6C44.5,84.8,44.6,85.3,44.6,85.6z M43.3,85.2c0-0.2-0.1-0.5-0.1-0.9c0-0.4,0-0.9-0.1-1.5
			c-0.1-0.6-0.1-1.3-0.2-2.1c-0.1-0.8-0.2-1.3-0.2-1.7c-0.1,0.4-0.2,1-0.4,1.8c-0.4,1.8-0.7,3.1-0.7,4.1
			C41.8,85,42.4,85.1,43.3,85.2z"/>
		<path class="st0" d="M48.1,86.9l0-0.7c0-0.2-0.2-1.6-0.3-4.3c-0.2-2.7-0.2-4.4-0.3-5c-0.7,0-1.2-0.1-1.4-0.2
			c-0.2-0.1-0.3-0.2-0.3-0.4c0-0.1,0.1-0.2,0.2-0.3c0.1-0.1,0.3-0.1,0.4-0.1l2.6,0.2l0.3,0c0.4,0,0.6,0.2,0.6,0.5
			c0,0.2-0.1,0.3-0.2,0.4c-0.1,0.1-0.3,0.1-0.4,0.1L48.6,77l0,0.2c0,1.2,0.1,3,0.3,5.4c0.2,2.4,0.3,4.2,0.3,5.4
			c0,0.2-0.1,0.3-0.2,0.4c-0.1,0.1-0.3,0.2-0.4,0.2h-0.4L48.1,86.9z"/>
	</g>
</g>
<g>
	<g>
		<path class="st1" d="M18.6,119c-1.2-2.8-1.3-5.9-2.1-8.8c-0.3,3.1-0.3,6.2-1,9.7c-0.5-1.6-0.4-2.8-0.5-3.9
			c-0.1-1.8-0.2-3.7-0.6-5.5c-0.2-0.9-0.4-1.3-1.5-1c-1.5,0.4-3.1,0.3-4.7,0.1c-0.7-0.1-1,0-1,0.9c0.2,2.5,0.2,5.1,0.2,7.6
			c0,0.6,0.1,1.2-0.4,1.8c-0.8-3.2-0.5-6.4-1.8-9.4c-0.1,3,0.1,6.1-0.4,9.2c-0.3-1.8-0.6-3.5-0.8-5.3c-0.2-1.9-0.7-3.8-1.2-5.7
			c-0.2-0.8-0.5-1.6-0.4-2.5c0.1-1.1,0.2-2.2-1.4-2.4c-0.5-0.1-0.8-0.6-0.9-1.1c-0.1-0.3-0.2-0.5,0-0.8c0.3-0.3,0.5,0,0.7,0.1
			c1.2,0.7,2.1,0.4,3-0.6c1.3-1.3,3-1.2,4.6-1.1c1.5,0.1,3-0.1,4.5-0.3c3.2-0.4,4.4-3,5.8-5.4c0.1-0.1,0.1-0.3,0-0.4
			c-0.3-0.5-0.9-1.1-0.3-1.5c0.5-0.3,0.9,0.4,1.2,0.8c0.2,0.2,0.4,0.3,0.7,0.1c0.3-0.2,0.2-0.5,0.1-0.7c-0.4-1.2-0.9-2.2-2.3-2.7
			c1.4-0.5,2.6,0.3,3.2,1.8c0.2,0.6,0.1,1.9,1.1,1.5c0.7-0.3,0-1.4-0.3-2C22,91,21.4,90.5,21,90c2-0.2,3.6,1.5,3,3.7
			c-0.4,1.7-0.2,3.2,0.8,4.6c0.2,0.3,0.4,0.7,0.5,1c0.2,0.5,0.1,0.9-0.3,1.3c-0.4,0.4-0.8,0.2-1.2-0.1c-1.2-0.7-1.8-0.3-2.4,0.8
			c-2.5,4.2-3.6,8.7-2.8,13.6C18.8,116.3,18.6,117.7,18.6,119z M15.3,103.8c-0.6-0.2-0.7-0.3-0.9-0.2c-0.8,0.2-1.7,0.8-1.7-0.9
			c0-0.5-0.8-0.7-1.3-0.5c-0.7,0.3-0.6,0.9-0.4,1.5c0.1,0.3,0.9,0.5,0.3,1c-0.3,0.2-0.7,0.4-1,0.3c-0.6-0.2-0.2-0.7-0.3-1.1
			c-0.1-0.7-0.1-1.5-1.1-1.4c-1.1,0.2-0.8,0.9-0.6,1.6c0,0.1,0,0.3,0,0.6c-0.5-0.4-0.9-0.9-1.4-1.2c-0.6-0.3-1.5-0.5-1.9,0.2
			c-0.4,0.7,0.2,1.3,0.8,1.7c0.6,0.5,1.3,0.3,2,0.5c-0.2,0.6-0.8,1.2,0,1.6c0.6,0.3,1.1-0.3,1.2-0.8c0.4-1,1.2-0.8,1.8-1
			c0.2,0.5-0.1,0.7-0.1,1c-0.1,0.4,0,0.8,0.4,1c0.3,0.2,0.6,0.2,0.9,0c0.3-0.3,0.5-0.7,0.3-1c-1.1-1.4,0.2-1.6,1-2.1
			C13.7,104.5,14.3,104.2,15.3,103.8z"/>
		<polygon class="st1" points="4.5,102.1 4,106.9 7.8,108.4 16.6,108 16.8,102.4 14,101 		"/>
	</g>
	<g>
		<path class="st1" d="M25.2,117.6l0.4,0c0.5,0,0.8,0.1,0.8,0.3c0,0.2,0,0.4-0.1,0.5s-0.2,0.1-0.4,0.1h-2.4c-0.4,0-0.6-0.1-0.6-0.4
			s0.2-0.4,0.6-0.4l0.6,0c0.1,0,0.1-0.3,0.1-1s-0.1-1.9-0.2-3.9s-0.2-3.4-0.2-4.4l0-1.9c0-0.4,0-0.8,0-1.1c-0.2,0.1-0.3,0.1-0.4,0.1
			c-0.3,0-0.4-0.2-0.4-0.5c0-0.2,0.1-0.3,0.3-0.4s0.4-0.2,0.7-0.2c0.5-0.1,0.9-0.1,1.2-0.1c0.3,0,0.4,0.1,0.6,0.2
			c0.1,0.1,0.2,0.2,0.2,0.4c0,0.1,0,0.3-0.1,0.4c-0.1,0.1-0.2,0.2-0.3,0.2l-0.3,0c-0.1,0-0.2,0-0.3,0.1c-0.1,0.1-0.1,0.2-0.1,0.3
			c0,1.2,0.1,3.1,0.2,5.6c0.2,2.5,0.2,4.3,0.2,5.6V117.6z"/>
		<path class="st1" d="M30.7,113.8l-0.3,0c-0.2,0-0.3,0-0.4-0.1s-0.2-0.2-0.2-0.4c0-0.2,0.1-0.3,0.2-0.4s0.3-0.1,0.4-0.1v0
			c1.2,0,1.9,0.2,1.9,0.6l-0.2,1.4l0.1,2c0,0.4,0,0.7-0.1,0.9c-0.7,0.7-1.4,1-2,1c-0.3,0-0.6-0.1-0.8-0.2c-0.3-0.2-0.5-0.4-0.7-0.8
			c-0.2-0.4-0.5-1.2-0.6-2.3c-0.2-1.1-0.3-1.9-0.3-2.3c0-0.4,0-0.8,0-1.1c0-0.3,0-0.6,0.1-1s0.1-0.6,0.1-0.7c0-0.1,0-0.3,0-0.5
			c0-0.2,0-0.4,0-0.6c0-0.2,0-0.4,0.1-0.8s0.1-0.6,0.2-0.8s0.2-0.4,0.3-0.7c0.1-0.2,0.3-0.4,0.4-0.6c0.4-0.3,0.8-0.5,1.3-0.5
			c0.5,0,0.8,0.2,0.8,0.5c0,0.1-0.1,0.3-0.2,0.4c-0.1,0.1-0.2,0.1-0.4,0.1l-0.3,0c-0.4,0-0.7,0.4-0.8,1.3c-0.2,0.8-0.3,1.6-0.3,2.3
			c-0.1,1-0.1,1.7-0.1,2.1c0,0.3,0,0.6,0,0.8c0,0.2,0,0.4,0,0.7c0,0.3,0,0.5,0,0.8c0,0.2,0.1,0.5,0.1,0.7c0,0.3,0.1,0.5,0.1,0.7
			s0.1,0.4,0.2,0.6s0.2,0.4,0.3,0.5c0.2,0.3,0.5,0.4,0.8,0.4c0.6,0,0.8-1.1,0.8-3.2v-0.7C31,113.8,30.9,113.8,30.7,113.8z"/>
		<path class="st1" d="M38.3,113.5c0,3.7-0.7,5.5-2.2,5.5c-1.4,0-2.2-1.7-2.3-5.2c0-0.3,0-0.7,0-1l0-1.2v-0.4c0-2.7,0.4-4.4,1.2-5
			c0.2-0.2,0.4-0.2,0.6-0.3c0.2,0.1,0.4,0.1,0.7,0.2c0.3,0.1,0.5,0.1,0.6,0.2c0.2,0.1,0.5,0.4,0.7,0.8c0.3,0.4,0.5,1,0.6,1.8
			c0.1,0.7,0.2,1.5,0.2,2.2V113.5z M34.8,109l0,1.1l0,1.8c0,0.2,0,0.3,0,0.6c0,0.2,0,0.5,0,0.8c0,0.3,0,0.7,0.1,1
			c0,0.3,0.1,0.7,0.1,1.1c0,0.4,0.1,0.7,0.1,1c0.1,0.3,0.1,0.6,0.2,0.9c0.2,0.6,0.4,0.8,0.7,0.8c0.4,0,0.6-0.3,0.8-1
			c0.3-1,0.4-2.3,0.4-3.8l0-2c0-1.4-0.1-2.3-0.2-2.8c-0.1-0.5-0.2-0.8-0.3-1.1c-0.2-0.5-0.5-0.7-1-0.7c0,0,0,0,0,0
			C35.1,106.8,34.8,107.6,34.8,109z"/>
		<path class="st1" d="M44.6,115.6l-0.1,0.4c0,0.2,0.1,0.5,0.2,1.1c0.1,0.6,0.2,1,0.2,1.2v0c0,0.3-0.1,0.5-0.3,0.5
			c-0.3,0-0.5,0-0.6-0.1c-0.1-0.1-0.2-0.3-0.2-0.7c0-0.4-0.1-1.1-0.3-2.2l-0.6-0.1h-0.6c-0.1-0.1-0.4-0.1-0.8-0.1c0,0,0,0.1,0,0.2
			c0,0.2,0,0.3,0,0.4c0,0.1,0,0.2,0,0.4s0,0.3-0.1,0.5c0,0.1-0.1,0.3-0.1,0.4c0,0.2-0.1,0.3-0.1,0.4c0,0.1-0.1,0.2-0.2,0.3
			c-0.1,0.2-0.2,0.3-0.4,0.3s-0.3,0-0.4-0.1s-0.2-0.2-0.2-0.4c0.3-1.3,0.6-2.6,0.9-4s0.4-2.2,0.4-2.5c0-0.3,0.2-0.8,0.3-1.5
			s0.3-1.3,0.3-1.5c0-0.3,0.1-0.6,0.1-1c0.1-0.9,0.2-1.5,0.3-1.7h0.6c0.4,0,0.7,0.1,0.7,0.4c0,2.5,0.2,4.9,0.7,7.3
			c0,0.1,0.1,0.3,0.1,0.6C44.5,114.8,44.6,115.3,44.6,115.6z M43.3,115.2c0-0.2-0.1-0.5-0.1-0.9c0-0.4,0-0.9-0.1-1.5
			c-0.1-0.6-0.1-1.3-0.2-2.1c-0.1-0.8-0.2-1.3-0.2-1.7c-0.1,0.4-0.2,1-0.4,1.8c-0.4,1.8-0.7,3.1-0.7,4.1
			C41.8,115,42.4,115.1,43.3,115.2z"/>
		<path class="st1" d="M48.1,116.9l0-0.7c0-0.2-0.2-1.6-0.3-4.3c-0.2-2.7-0.2-4.4-0.3-5c-0.7,0-1.2-0.1-1.4-0.2
			c-0.2-0.1-0.3-0.2-0.3-0.4c0-0.1,0.1-0.2,0.2-0.3c0.1-0.1,0.3-0.1,0.4-0.1l2.6,0.2l0.3,0c0.4,0,0.6,0.2,0.6,0.5
			c0,0.2-0.1,0.3-0.2,0.4c-0.1,0.1-0.3,0.1-0.4,0.1l-0.9-0.1l0,0.2c0,1.2,0.1,3,0.3,5.4c0.2,2.4,0.3,4.2,0.3,5.4
			c0,0.2-0.1,0.3-0.2,0.4c-0.1,0.1-0.3,0.2-0.4,0.2h-0.4L48.1,116.9z"/>
	</g>
</g>
<g id="s1tpFF.tif">
	<g>
		<path class="st0" d="M74.6,0c4.5,0,9,0,13.4,0c4.6,1,7.6,3.5,7.7,8.4c0.1,4.5,0.2,8.9,0,13.4c-0.2,4.7-3.2,7.7-7.8,8
			c-4.6,0.2-9.2,0.3-13.8,0.1c-4.5-0.2-7.4-2.9-7.9-7.4C65.9,18.3,66,14,66,9.8c0-6,2.2-8.4,8.1-9.5C74.2,0.3,74.4,0.1,74.6,0z
			 M80.7,27.3c0-0.1,0-0.1,0-0.2c2.3,0,4.6,0.1,6.9,0c3.4-0.2,5.2-1.7,5.3-5.1c0.2-4.7,0.2-9.5-0.1-14.2c-0.2-3.1-1.6-4.5-4.6-4.7
			C83.5,2.8,78.6,2.9,73.8,3c-3,0.1-4.7,1.8-4.8,4.8c-0.2,4.7-0.3,9.4-0.1,14c0.2,3.6,2.3,5.4,5.9,5.5
			C76.8,27.4,78.8,27.3,80.7,27.3z"/>
		<path class="st0" d="M88.6,15.1c0,4.4-3.4,7.7-8,7.6c-4.1,0-7.4-3.6-7.3-7.8c0-4.1,3.4-7.5,7.6-7.5C85.2,7.4,88.6,10.8,88.6,15.1z
			 M85.9,15c0-2.8-2.2-5-5-5c-2.7,0-5,2.4-5,5c0,2.7,2.3,4.9,5,4.9C83.7,20,85.9,17.8,85.9,15z"/>
		<path class="st0" d="M91.4,7.2c-1.2,0.7-1.9,1.5-2.6,1.5c-0.6,0-1.1-1-1.6-1.6c0.7-0.6,1.2-1.5,2-1.7C89.6,5.2,90.4,6.3,91.4,7.2z
			"/>
	</g>
</g>
<path class="st0" d="M0.2,14.7c0-2-0.2-3.9-0.2-5.9C0.2,3.2,3.4,0,8.9,0C14,0,19.1-0.1,24.1,0.3c3.4,0.2,6,3.8,6.1,8.1
	c0.1,4.1,0.3,8.3-0.1,12.4c-0.7,7.3-3.4,9-9.6,9.1c-4.4,0.1-8.8,0-13.2,0c-3.1,0-6.3-2.9-6.8-6.1c-0.1-0.9-0.3-1.8-0.3-2.7
	C0.2,19,0.2,16.9,0.2,14.7C0.1,14.7,0.2,14.7,0.2,14.7z M15.7,4.4c-4,0-4.4,0.4-4.5,4.5c0,1.1,0.4,2.5-1.6,2.6
	c-1.5,0.1-1.3,1.7-1.4,2.6c-0.1,0.8,0.1,2.1,1.5,2.1c1.6,0,1.4,1,1.6,2c0.3,1.3,0,2.5,0,3.7c0,1.8-1.2,4.6,1.6,4.7
	c2.7,0.1,2.3-2.7,2.4-4.7c0-1.2,0-2.5,0-3.7c0-1.3-0.1-2.3,1.9-2c1.9,0.3,2.1-0.5,1.8-2.8c-0.3-1.9-1.7-2-3-2.1c-1.6-0.1,0-2,1-2.2
	C19,8.5,19.4,7.2,19,5.6C18.6,3.6,16.8,4.7,15.7,4.4z"/>
<g id="_x30_SuvFl.tif">
	<g>
		<path class="st0" d="M30.4,26.8c3.9-0.1,7.1-0.8,10.2-3.2c-3.1-0.7-5.4-2.1-6.6-5c0.7-0.5,1.6,0.2,2.4-0.6c-3-1.4-4.9-3.6-5.1-7
			c1-0.3,1.7,0.8,2.7,0.2c-2.2-2.2-3.1-4.7-2.5-7.8c0.3-1.4,0.7-2,2-0.6c3.3,3.6,7.6,5.6,12.4,6.4c1.1,0.2,1.9,0.4,1.8-1.4
			c-0.2-2.9,1.3-5.3,3.8-6.7c2.4-1.4,5.1-1.5,7.3,0.1c1.8,1.3,3.3,1.2,5,0.3c0.4-0.2,0.7-0.3,1.4-0.5c-0.4,1.6-1.5,2.5-2.5,3.8
			c1.2-0.3,2.1-0.5,3.1-0.8c0.3,0.4-0.1,0.7-0.3,0.8c-2.4,1.7-2.8,4.1-3.1,6.8c-1.7,14.3-18.1,22.7-30.8,16
			C31.4,27.5,31.1,27.3,30.4,26.8z"/>
	</g>
</g>
<g id="s1tpFF.tif_1_">
	<g>
		<path class="st1" d="M74.6,29.9c4.5,0,9,0,13.4,0c4.6,1,7.6,3.5,7.7,8.4c0.1,4.5,0.2,8.9,0,13.4c-0.2,4.7-3.2,7.7-7.8,8
			c-4.6,0.2-9.2,0.3-13.8,0.1c-4.5-0.2-7.4-2.9-7.9-7.4c-0.4-4.2-0.3-8.5-0.3-12.7c0-6,2.2-8.4,8.1-9.5C74.2,30.2,74.4,30,74.6,29.9
			z M80.7,57.2c0-0.1,0-0.1,0-0.2c2.3,0,4.6,0.1,6.9,0c3.4-0.2,5.2-1.7,5.3-5.1c0.2-4.7,0.2-9.5-0.1-14.2c-0.2-3.1-1.6-4.5-4.6-4.7
			c-4.8-0.3-9.6-0.2-14.4-0.1c-3,0.1-4.7,1.8-4.8,4.8c-0.2,4.7-0.3,9.4-0.1,14c0.2,3.6,2.3,5.4,5.9,5.5
			C76.8,57.3,78.8,57.2,80.7,57.2z"/>
		<path class="st1" d="M88.6,45c0,4.4-3.4,7.7-8,7.6c-4.1,0-7.4-3.6-7.3-7.8c0-4.1,3.4-7.5,7.6-7.5C85.2,37.3,88.6,40.7,88.6,45z
			 M85.9,44.9c0-2.8-2.2-5-5-5c-2.7,0-5,2.4-5,5c0,2.7,2.3,4.9,5,4.9C83.7,49.9,85.9,47.7,85.9,44.9z"/>
		<path class="st1" d="M91.4,37.1c-1.2,0.7-1.9,1.5-2.6,1.5c-0.6,0-1.1-1-1.6-1.6c0.7-0.6,1.2-1.5,2-1.7
			C89.6,35.2,90.4,36.2,91.4,37.1z"/>
	</g>
</g>
<path class="st1" d="M0.2,44.6c0-2-0.2-3.9-0.2-5.9c0.2-5.6,3.3-8.7,8.9-8.8c5.1,0,10.2-0.1,15.2,0.3c3.4,0.2,6,3.8,6.1,8.1
	c0.1,4.1,0.3,8.3-0.1,12.4c-0.7,7.3-3.4,9-9.6,9.1c-4.4,0.1-8.8,0-13.2,0c-3.1,0-6.3-2.9-6.8-6.1c-0.1-0.9-0.3-1.8-0.3-2.7
	C0.2,49,0.2,46.8,0.2,44.6C0.1,44.6,0.2,44.6,0.2,44.6z M15.7,34.3c-4,0-4.4,0.4-4.5,4.5c0,1.1,0.4,2.5-1.6,2.6
	c-1.5,0.1-1.3,1.7-1.4,2.6c-0.1,0.8,0.1,2.1,1.5,2.1c1.6,0,1.4,1,1.6,2c0.3,1.3,0,2.5,0,3.7c0,1.8-1.2,4.6,1.6,4.7
	c2.7,0.1,2.3-2.7,2.4-4.7c0-1.2,0-2.5,0-3.7c0-1.3-0.1-2.3,1.9-2c1.9,0.3,2.1-0.5,1.8-2.8c-0.3-1.9-1.7-2-3-2.1c-1.6-0.1,0-2,1-2.2
	c2.1-0.5,2.4-1.8,2.1-3.4C18.6,33.5,16.8,34.7,15.7,34.3z"/>
<g id="_x30_SuvFl.tif_1_">
	<g>
		<path class="st1" d="M30.4,56.7c3.9-0.1,7.1-0.8,10.2-3.2c-3.1-0.7-5.4-2.1-6.6-5c0.7-0.5,1.6,0.2,2.4-0.6c-3-1.4-4.9-3.6-5.1-7
			c1-0.3,1.7,0.8,2.7,0.2c-2.2-2.2-3.1-4.7-2.5-7.8c0.3-1.4,0.7-2,2-0.6c3.3,3.6,7.6,5.6,12.4,6.4c1.1,0.2,1.9,0.4,1.8-1.4
			c-0.2-2.9,1.3-5.3,3.8-6.7c2.4-1.4,5.1-1.5,7.3,0.1c1.8,1.3,3.3,1.2,5,0.3c0.4-0.2,0.7-0.3,1.4-0.5c-0.4,1.6-1.5,2.5-2.5,3.8
			c1.2-0.3,2.1-0.5,3.1-0.8c0.3,0.4-0.1,0.7-0.3,0.8c-2.4,1.7-2.8,4.1-3.1,6.8c-1.7,14.3-18.1,22.7-30.8,16
			C31.4,57.4,31.1,57.2,30.4,56.7z"/>
	</g>
</g>
</svg>
