<?xml version="1.0" encoding="utf-8"?>
<!-- Generator: Adobe Illustrator 22.0.1, SVG Export Plug-In . SVG Version: 6.00 Build 0)  -->
<svg version="1.1" id="Layer_1" xmlns="http://www.w3.org/2000/svg" xmlns:xlink="http://www.w3.org/1999/xlink" x="0px" y="0px"
	 viewBox="0 0 500 500" style="enable-background:new 0 0 500 500;" xml:space="preserve">
<style type="text/css">
	.st0{fill:#FFDA57;}
	.st1{fill:#FF643F;}
</style>
<g>
	<path class="st0" d="M25,70.6c0.4-0.4,0.5-0.8,0.3-1.3c-0.1-0.3-0.3-0.7-0.5-1c-1-1.4-1.2-2.9-0.8-4.6c0.6-2.2-1-3.9-3-3.7
		c0.4,0.5,1,1,1.1,1.5c0.3,0.6,1,1.7,0.3,2c-1,0.4-0.9-0.9-1.1-1.5c-0.6-1.5-1.8-2.3-3.2-1.8c1.4,0.5,1.9,1.5,2.3,2.7
		c0.1,0.2,0.2,0.5-0.1,0.7s-0.5,0.1-0.7-0.1c-0.3-0.4-0.7-1.1-1.2-0.8c-0.6,0.4,0,1,0.3,1.5c0.1,0.1,0.1,0.3,0,0.4
		c-1.4,2.4-2.6,5-5.8,5.4c-1.5,0.2-3,0.4-4.5,0.3c-1.6-0.1-3.3-0.2-4.6,1.1c-0.9,1-1.8,1.3-3,0.6c-0.2-0.1-0.4-0.4-0.7-0.1
		c-0.2,0.3-0.1,0.5,0,0.8c0.1,0.5,0.4,1,0.9,1.1c1.6,0.2,1.5,1.3,1.4,2.4c-0.1,0.9,0.2,1.7,0.4,2.5c0.5,1.9,1,3.8,1.2,5.7
		c0.2,1.8,0.5,3.5,0.8,5.3c0.5-3.1,0.3-6.2,0.4-9.2c1.3,3,1,6.2,1.8,9.4c0.5-0.6,0.4-1.2,0.4-1.8c0-2.5,0-5.1-0.2-7.6
		c0-0.9,0.3-1,1-0.9c1.6,0.2,3.2,0.3,4.7-0.1c1.1-0.3,1.3,0.1,1.5,1c0.4,1.8,0.5,3.7,0.6,5.5c0.1,1.1,0,2.3,0.5,3.9
		c0.7-3.5,0.7-6.6,1-9.7c0.8,2.9,0.9,6,2.1,8.8c0-1.3,0.2-2.7,0-4.1c-0.8-4.9,0.3-9.4,2.8-13.6c0.6-1.1,1.2-1.5,2.4-0.8
		C24.2,70.8,24.6,71,25,70.6z"/>
	<path class="st0" d="M25.6,87.6h-0.3v-0.5c0-1.3,0-3.1-0.2-5.6c-0.1-2.5-0.2-4.4-0.2-5.6c0-0.1,0-0.2,0.1-0.3
		c0.1-0.1,0.2-0.1,0.3-0.1h0.3c0.1,0,0.2-0.1,0.3-0.2C26,75.2,26,75,26,74.9c0-0.2-0.1-0.3-0.2-0.4c-0.2-0.1-0.3-0.2-0.6-0.2
		s-0.7,0-1.2,0.1c-0.3,0-0.5,0.1-0.7,0.2C23.1,74.7,23,74.8,23,75c0,0.3,0.1,0.5,0.4,0.5c0.1,0,0.2,0,0.4-0.1c0,0.3,0,0.7,0,1.1v1.9
		c0,1,0.1,2.4,0.2,4.4s0.2,3.2,0.2,3.9c0,0.7,0,1-0.1,1h-0.6c-0.4,0-0.6,0.1-0.6,0.4c0,0.3,0.2,0.4,0.6,0.4h2.4c0.2,0,0.3,0,0.4-0.1
		c0.1-0.1,0.1-0.3,0.1-0.5C26.4,87.7,26.1,87.6,25.6,87.6z"/>
	<path class="st0" d="M30.4,82.8c-0.1,0-0.3,0-0.4,0.1c-0.1,0.1-0.2,0.2-0.2,0.4s0.1,0.3,0.2,0.4c0.1,0.1,0.2,0.1,0.4,0.1h0.3
		c0.2,0,0.3,0,0.4,0.2v0.7c0,2.1-0.2,3.2-0.8,3.2c-0.3,0-0.6-0.1-0.8-0.4c-0.1-0.1-0.2-0.3-0.3-0.5c-0.1-0.2-0.2-0.4-0.2-0.6
		c0-0.2-0.1-0.4-0.1-0.7c0-0.2-0.1-0.5-0.1-0.7c0-0.3,0-0.5,0-0.8s0-0.5,0-0.7s0-0.5,0-0.8c0-0.4,0-1.1,0.1-2.1
		c0-0.7,0.1-1.5,0.3-2.3c0.1-0.9,0.4-1.3,0.8-1.3h0.3c0.2,0,0.3,0,0.4-0.3c0.1-0.1,0.2-0.3,0.2-0.4c0-0.3-0.3-0.5-0.8-0.5
		s-0.9,0.2-1.3,0.5c-0.1,0.2-0.3,0.4-0.4,0.6c-0.1,0.3-0.2,0.5-0.3,0.7C28,77.8,28,78,27.9,78.4c-0.1,0.4-0.1,0.6-0.1,0.8
		s0,0.4,0,0.6s0,0.4,0,0.5c0,0.1,0,0.3-0.1,0.7c-0.1,0.4-0.1,0.7-0.1,1s0,0.7,0,1.1c0,0.4,0.1,1.2,0.3,2.3c0.1,1.1,0.4,1.9,0.6,2.3
		c0.2,0.4,0.4,0.6,0.7,0.8c0.2,0.1,0.5,0.2,0.8,0.2c0.6,0,1.3-0.3,2-1c0.1-0.2,0.1-0.5,0.1-0.9l-0.1-2l0.3-1.4
		C32.3,83,31.6,82.8,30.4,82.8z"/>
	<path class="st0" d="M37.6,77.1c-0.2-0.4-0.5-0.7-0.7-0.8c-0.1-0.1-0.3-0.1-0.6-0.2C36,76,35.8,76,35.6,75.9
		C35.4,76,35.2,76,35,76.2c-0.8,0.6-1.2,2.3-1.2,5v0.4v1.2c0,0.3,0,0.7,0,1c0.1,3.5,0.9,5.2,2.3,5.2c1.5,0,2.2-1.8,2.2-5.5h0.1v-2.4
		c0-0.7-0.1-1.5-0.2-2.2C38.1,78.1,37.9,77.5,37.6,77.1z M37.2,83.3c0,1.5-0.1,2.8-0.4,3.8c-0.2,0.7-0.4,1-0.8,1
		c-0.3,0-0.5-0.2-0.7-0.8c-0.1-0.3-0.1-0.6-0.2-0.9c0-0.3-0.1-0.6-0.1-1c0-0.4-0.1-0.8-0.1-1.1c-0.1-0.3-0.1-0.7-0.1-1s0-0.6,0-0.8
		c0-0.3,0-0.4,0-0.6v-1.8V79c0-1.4,0.3-2.2,0.9-2.3c0.5,0,0.8,0.2,1,0.7c0.1,0.3,0.2,0.6,0.3,1.1s0.2,1.4,0.2,2.8V83.3z"/>
	<path class="st0" d="M44.5,86l0.1-0.4c0-0.3-0.1-0.8-0.2-1.5c0-0.3-0.1-0.5-0.1-0.6c-0.5-2.4-0.7-4.8-0.7-7.3
		c0-0.3-0.3-0.4-0.7-0.4h-0.6c-0.1,0.2-0.2,0.8-0.3,1.7c0,0.4-0.1,0.7-0.1,1c0,0.2-0.2,0.8-0.3,1.5c-0.1,0.7-0.3,1.2-0.3,1.5
		s-0.1,1.1-0.4,2.5c-0.3,1.4-0.6,2.7-0.9,4c0,0.2,0.1,0.3,0.2,0.4c0.1,0.1,0.2,0.1,0.4,0.1c0.2,0,0.3-0.1,0.4-0.3
		c0.1-0.1,0.2-0.2,0.2-0.3c0-0.1,0.1-0.2,0.1-0.4c0-0.1,0.1-0.3,0.1-0.4c0.1-0.2,0.1-0.3,0.1-0.5c0-0.2,0-0.3,0-0.4
		c0-0.1,0-0.2,0-0.4c0-0.1,0-0.2,0-0.2c0.4,0,0.7,0,0.8,0.1h0.6l0.6,0.1c0.2,1.1,0.3,1.8,0.3,2.2c0,0.4,0.1,0.6,0.2,0.7
		c0.1,0.1,0.3,0.1,0.6,0.1c0.2,0,0.3-0.2,0.3-0.5c0-0.2-0.1-0.6-0.2-1.2C44.6,86.5,44.5,86.2,44.5,86z M41.6,84.9
		c0-1,0.3-2.3,0.7-4.1c0.2-0.8,0.3-1.4,0.4-1.8c0,0.4,0.1,0.9,0.2,1.7c0.1,0.8,0.1,1.5,0.2,2.1c0.1,0.6,0.1,1.1,0.1,1.5
		s0.1,0.7,0.1,0.9C42.4,85.1,41.8,85,41.6,84.9z"/>
	<path class="st0" d="M49.3,76.1H49l-2.6-0.2c-0.1,0-0.3,0-0.4,0.1s-0.2,0.2-0.2,0.3c0,0.2,0.1,0.3,0.3,0.4c0.2,0.1,0.7,0.2,1.4,0.2
		c0.1,0.6,0.1,2.3,0.3,5c0.1,2.7,0.3,4.1,0.3,4.3v0.7l0.1,1.7h0.4c0.1,0,0.3-0.1,0.4-0.2c0.1-0.1,0.2-0.2,0.2-0.4
		c0-1.2-0.1-3-0.3-5.4c-0.2-2.4-0.3-4.2-0.3-5.4V77l0.7,0.1c0.1,0,0.3,0,0.4-0.1c0.1-0.1,0.2-0.2,0.2-0.4
		C49.9,76.3,49.7,76.1,49.3,76.1z"/>
</g>
<g>
	<path class="st1" d="M25,100.6c0.4-0.4,0.5-0.8,0.3-1.3c-0.1-0.3-0.3-0.7-0.5-1c-1-1.4-1.2-2.9-0.8-4.6c0.6-2.2-1-3.9-3-3.7
		c0.4,0.5,1,1,1.1,1.5c0.3,0.6,1,1.7,0.3,2c-1,0.4-0.9-0.9-1.1-1.5c-0.6-1.5-1.8-2.3-3.2-1.8c1.4,0.5,1.9,1.5,2.3,2.7
		c0.1,0.2,0.2,0.5-0.1,0.7s-0.5,0.1-0.7-0.1c-0.3-0.4-0.7-1.1-1.2-0.8c-0.6,0.4,0,1,0.3,1.5c0.1,0.1,0.1,0.3,0,0.4
		c-1.4,2.4-2.6,5-5.8,5.4c-1.5,0.2-3,0.4-4.5,0.3c-1.6-0.1-3.3-0.2-4.6,1.1c-0.9,1-1.8,1.3-3,0.6c-0.2-0.1-0.4-0.4-0.7-0.1
		c-0.2,0.3-0.1,0.5,0,0.8c0.1,0.5,0.4,1,0.9,1.1c1.6,0.2,1.5,1.3,1.4,2.4c-0.1,0.9,0.2,1.7,0.4,2.5c0.5,1.9,1,3.8,1.2,5.7
		c0.2,1.8,0.5,3.5,0.8,5.3c0.5-3.1,0.3-6.2,0.4-9.2c1.3,3,1,6.2,1.8,9.4c0.5-0.6,0.4-1.2,0.4-1.8c0-2.5,0-5.1-0.2-7.6
		c0-0.9,0.3-1,1-0.9c1.6,0.2,3.2,0.3,4.7-0.1c1.1-0.3,1.3,0.1,1.5,1c0.4,1.8,0.5,3.7,0.6,5.5c0.1,1.1,0,2.3,0.5,3.9
		c0.7-3.5,0.7-6.6,1-9.7c0.8,2.9,0.9,6,2.1,8.8c0-1.3,0.2-2.7,0-4.1c-0.8-4.9,0.3-9.4,2.8-13.6c0.6-1.1,1.2-1.5,2.4-0.8
		C24.2,100.8,24.6,101,25,100.6z"/>
	<path class="st1" d="M25.6,117.6h-0.3v-0.5c0-1.3,0-3.1-0.2-5.6c-0.1-2.5-0.2-4.4-0.2-5.6c0-0.1,0-0.2,0.1-0.3
		c0.1-0.1,0.2-0.1,0.3-0.1h0.3c0.1,0,0.2-0.1,0.3-0.2c0.1-0.1,0.1-0.3,0.1-0.4c0-0.2-0.1-0.3-0.2-0.4c-0.2-0.1-0.3-0.2-0.6-0.2
		s-0.7,0-1.2,0.1c-0.3,0-0.5,0.1-0.7,0.2c-0.2,0.1-0.3,0.2-0.3,0.4c0,0.3,0.1,0.5,0.4,0.5c0.1,0,0.2,0,0.4-0.1c0,0.3,0,0.7,0,1.1
		v1.9c0,1,0.1,2.4,0.2,4.4s0.2,3.2,0.2,3.9c0,0.7,0,1-0.1,1h-0.6c-0.4,0-0.6,0.1-0.6,0.4c0,0.3,0.2,0.4,0.6,0.4h2.4
		c0.2,0,0.3,0,0.4-0.1c0.1-0.1,0.1-0.3,0.1-0.5C26.4,117.7,26.1,117.6,25.6,117.6z"/>
	<path class="st1" d="M30.4,112.8c-0.1,0-0.3,0-0.4,0.1c-0.1,0.1-0.2,0.2-0.2,0.4s0.1,0.3,0.2,0.4c0.1,0.1,0.2,0.1,0.4,0.1h0.3
		c0.2,0,0.3,0,0.5,0v0.7c0,2.1-0.2,3.2-0.8,3.2c-0.3,0-0.6-0.1-0.8-0.4c-0.1-0.1-0.2-0.3-0.3-0.5c-0.1-0.2-0.2-0.4-0.2-0.6
		s-0.1-0.4-0.1-0.7c0-0.2-0.1-0.5-0.1-0.7c0-0.3,0-0.5,0-0.8s0-0.5,0-0.7s0-0.5,0-0.8c0-0.4,0-1.1,0.1-2.1c0-0.7,0.1-1.5,0.3-2.3
		c0.1-0.9,0.4-1.3,0.8-1.3h0.3c0.2,0,0.3,0,0.4-0.1c0.1-0.1,0.2-0.3,0.2-0.4c0-0.3-0.3-0.5-0.8-0.5s-0.9,0.2-1.3,0.5
		c-0.1,0.2-0.3,0.4-0.4,0.6c-0.1,0.3-0.2,0.5-0.3,0.7c-0.1,0.2-0.1,0.4-0.2,0.8c-0.1,0.4-0.1,0.6-0.1,0.8s0,0.4,0,0.6s0,0.4,0,0.5
		c0,0.1,0,0.3-0.1,0.7c-0.1,0.4-0.1,0.7-0.1,1s0,0.7,0,1.1c0,0.4,0.1,1.2,0.3,2.3c0.1,1.1,0.4,1.9,0.6,2.3c0.2,0.4,0.4,0.6,0.7,0.8
		c0.2,0.1,0.5,0.2,0.8,0.2c0.6,0,1.3-0.3,2-1c0.1-0.2,0.1-0.5,0.1-0.9l-0.1-2l0.2-1.4C32.3,113,31.6,112.8,30.4,112.8z"/>
	<path class="st1" d="M37.6,107.1c-0.2-0.4-0.5-0.7-0.7-0.8c-0.1-0.1-0.3-0.1-0.6-0.2c-0.3-0.1-0.5-0.1-0.7-0.2
		c-0.2,0.1-0.4,0.1-0.6,0.3c-0.8,0.6-1.2,2.3-1.2,5v0.4v1.2c0,0.3,0,0.7,0,1c0.1,3.5,0.9,5.2,2.3,5.2c1.5,0,2.2-1.8,2.2-5.5h0.1
		v-2.4c0-0.7-0.1-1.5-0.2-2.2C38.1,108.1,37.9,107.5,37.6,107.1z M37.2,113.3c0,1.5-0.1,2.8-0.4,3.8c-0.2,0.7-0.4,1-0.8,1
		c-0.3,0-0.5-0.2-0.7-0.8c-0.1-0.3-0.1-0.6-0.2-0.9c0-0.3-0.1-0.6-0.1-1c0-0.4-0.1-0.8-0.1-1.1c-0.1-0.3-0.1-0.7-0.1-1s0-0.6,0-0.8
		c0-0.3,0-0.4,0-0.6v-1.8V109c0-1.4,0.3-2.2,0.9-2.3c0.5,0,0.8,0.2,1,0.7c0.1,0.3,0.2,0.6,0.3,1.1s0.2,1.4,0.2,2.8V113.3z"/>
	<path class="st1" d="M44.5,116l0.1-0.4c0-0.3-0.1-0.8-0.2-1.5c0-0.3-0.1-0.5-0.1-0.6c-0.5-2.4-0.7-4.8-0.7-7.3
		c0-0.3-0.3-0.4-0.7-0.4h-0.6c-0.1,0.2-0.2,0.8-0.3,1.7c0,0.4-0.1,0.7-0.1,1c0,0.2-0.2,0.8-0.3,1.5c-0.1,0.7-0.3,1.2-0.3,1.5
		s-0.1,1.1-0.4,2.5c-0.3,1.4-0.6,2.7-0.9,4c0,0.2,0.1,0.3,0.2,0.4c0.1,0.1,0.2,0.1,0.4,0.1c0.2,0,0.3-0.1,0.4-0.3
		c0.1-0.1,0.2-0.2,0.2-0.3c0-0.1,0.1-0.2,0.1-0.4c0-0.1,0.1-0.3,0.1-0.4c0.1-0.2,0.1-0.3,0.1-0.5c0-0.2,0-0.3,0-0.4
		c0-0.1,0-0.2,0-0.4c0-0.1,0-0.2,0-0.2c0.4,0,0.7,0,0.8,0.1h0.6l0.6,0.1c0.2,1.1,0.3,1.8,0.3,2.2c0,0.4,0.1,0.6,0.2,0.7
		c0.1,0.1,0.3,0.1,0.6,0.1c0.2,0,0.3-0.2,0.3-0.5c0-0.2-0.1-0.6-0.2-1.2C44.6,116.5,44.5,116.2,44.5,116z M41.6,114.9
		c0-1,0.3-2.3,0.7-4.1c0.2-0.8,0.3-1.4,0.4-1.8c0,0.4,0.1,0.9,0.2,1.7c0.1,0.8,0.1,1.5,0.2,2.1c0.1,0.6,0.1,1.1,0.1,1.5
		s0.1,0.7,0.1,0.9C42.4,115.1,41.8,115,41.6,114.9z"/>
	<path class="st1" d="M49.3,106.1H49l-2.6-0.2c-0.1,0-0.3,0-0.4,0.1s-0.2,0.2-0.2,0.3c0,0.2,0.1,0.3,0.3,0.4
		c0.2,0.1,0.7,0.2,1.4,0.2c0.1,0.6,0.1,2.3,0.3,5c0.1,2.7,0.3,4.1,0.3,4.3v0.7l-0.1,1.7h0.4c0.1,0,0.3-0.1,0.4-0.2
		c0.1-0.1,0.2-0.2,0.2-0.4c0-1.2-0.1-3-0.3-5.4c-0.2-2.4-0.3-4.2-0.3-5.4V107l0.9,0.1c0.1,0,0.3,0,0.4-0.1c0.1-0.1,0.2-0.2,0.2-0.4
		C49.9,106.3,49.7,106.1,49.3,106.1z"/>
</g>
<g id="s1tpFF.tif_3_">
	<g>
		<path class="st0" d="M74.6,0c4.5,0,9,0,13.4,0c4.6,1,7.6,3.5,7.7,8.4c0.1,4.5,0.2,8.9,0,13.4c-0.2,4.7-3.2,7.7-7.8,8
			c-4.6,0.2-9.2,0.3-13.8,0.1c-4.5-0.2-7.4-2.9-7.9-7.4C65.9,18.3,66,14,66,9.8c0-6,2.2-8.4,8.1-9.5C74.2,0.3,74.4,0.1,74.6,0z
			 M80.7,27.3c0-0.1,0-0.1,0-0.2c2.3,0,4.6,0.1,6.9,0c3.4-0.2,5.2-1.7,5.3-5.1c0.2-4.7,0.2-9.5-0.1-14.2c-0.2-3.1-1.6-4.5-4.6-4.7
			C83.5,2.8,78.6,2.9,73.8,3c-3,0.1-4.7,1.8-4.8,4.8c-0.2,4.7-0.3,9.4-0.1,14c0.2,3.6,2.3,5.4,5.9,5.5
			C76.8,27.4,78.8,27.3,80.7,27.3z"/>
		<path class="st0" d="M88.6,15.1c0,4.4-3.4,7.7-8,7.6c-4.1,0-7.4-3.6-7.3-7.8c0-4.1,3.4-7.5,7.6-7.5C85.2,7.4,88.6,10.8,88.6,15.1z
			 M85.9,15c0-2.8-2.2-5-5-5c-2.7,0-5,2.4-5,5c0,2.7,2.3,4.9,5,4.9C83.7,20,85.9,17.8,85.9,15z"/>
		<path class="st0" d="M91.4,7.2c-1.2,0.7-1.9,1.5-2.6,1.5c-0.6,0-1.1-1-1.6-1.6c0.7-0.6,1.2-1.5,2-1.7C89.6,5.2,90.4,6.3,91.4,7.2z
			"/>
	</g>
</g>
<path class="st0" d="M0.2,14.7c0-2-0.2-3.9-0.2-5.9C0.2,3.2,3.4,0,8.9,0C14,0,19.1-0.1,24.1,0.3c3.4,0.2,6,3.8,6.1,8.1
	c0.1,4.1,0.3,8.3-0.1,12.4c-0.7,7.3-3.4,9-9.6,9.1c-4.4,0.1-8.8,0-13.2,0c-3.1,0-6.3-2.9-6.8-6.1c-0.1-0.9-0.3-1.8-0.3-2.7
	C0.2,19,0.2,16.9,0.2,14.7C0.1,14.7,0.2,14.7,0.2,14.7z M15.7,4.4c-4,0-4.4,0.4-4.5,4.5c0,1.1,0.4,2.5-1.6,2.6
	c-1.5,0.1-1.3,1.7-1.4,2.6c-0.1,0.8,0.1,2.1,1.5,2.1c1.6,0,1.4,1,1.6,2c0.3,1.3,0,2.5,0,3.7c0,1.8-1.2,4.6,1.6,4.7
	c2.7,0.1,2.3-2.7,2.4-4.7c0-1.2,0-2.5,0-3.7c0-1.3-0.1-2.3,1.9-2c1.9,0.3,2.1-0.5,1.8-2.8c-0.3-1.9-1.7-2-3-2.1c-1.6-0.1,0-2,1-2.2
	c2-0.6,2.4-1.9,2-3.5C18.6,3.6,16.8,4.7,15.7,4.4z"/>
<g id="_x30_SuvFl.tif_3_">
	<g>
		<path class="st0" d="M30.4,26.8c3.9-0.1,7.1-0.8,10.2-3.2c-3.1-0.7-5.4-2.1-6.6-5c0.7-0.5,1.6,0.2,2.4-0.6c-3-1.4-4.9-3.6-5.1-7
			c1-0.3,1.7,0.8,2.7,0.2c-2.2-2.2-3.1-4.7-2.5-7.8c0.3-1.4,0.7-2,2-0.6c3.3,3.6,7.6,5.6,12.4,6.4c1.1,0.2,1.9,0.4,1.8-1.4
			c-0.2-2.9,1.3-5.3,3.8-6.7c2.4-1.4,5.1-1.5,7.3,0.1c1.8,1.3,3.3,1.2,5,0.3c0.4-0.2,0.7-0.3,1.4-0.5c-0.4,1.6-1.5,2.5-2.5,3.8
			c1.2-0.3,2.1-0.5,3.1-0.8c0.3,0.4-0.1,0.7-0.3,0.8c-2.4,1.7-2.8,4.1-3.1,6.8c-1.7,14.3-18.1,22.7-30.8,16
			C31.4,27.5,31.1,27.3,30.4,26.8z"/>
	</g>
</g>
<g id="s1tpFF.tif_2_">
	<g>
		<path class="st1" d="M74.6,29.9c4.5,0,9,0,13.4,0c4.6,1,7.6,3.5,7.7,8.4c0.1,4.5,0.2,8.9,0,13.4c-0.2,4.7-3.2,7.7-7.8,8
			c-4.6,0.2-9.2,0.3-13.8,0.1c-4.5-0.2-7.4-2.9-7.9-7.4c-0.4-4.2-0.3-8.5-0.3-12.7c0-6,2.2-8.4,8.1-9.5C74.2,30.2,74.4,30,74.6,29.9
			z M80.7,57.2c0-0.1,0-0.1,0-0.2c2.3,0,4.6,0.1,6.9,0c3.4-0.2,5.2-1.7,5.3-5.1c0.2-4.7,0.2-9.5-0.1-14.2c-0.2-3.1-1.6-4.5-4.6-4.7
			c-4.8-0.3-9.6-0.2-14.4-0.1c-3,0.1-4.7,1.8-4.8,4.8c-0.2,4.7-0.3,9.4-0.1,14c0.2,3.6,2.3,5.4,5.9,5.5
			C76.8,57.3,78.8,57.2,80.7,57.2z"/>
		<path class="st1" d="M88.6,45c0,4.4-3.4,7.7-8,7.6c-4.1,0-7.4-3.6-7.3-7.8c0-4.1,3.4-7.5,7.6-7.5C85.2,37.3,88.6,40.7,88.6,45z
			 M85.9,44.9c0-2.8-2.2-5-5-5c-2.7,0-5,2.4-5,5c0,2.7,2.3,4.9,5,4.9C83.7,49.9,85.9,47.7,85.9,44.9z"/>
		<path class="st1" d="M91.4,37.1c-1.2,0.7-1.9,1.5-2.6,1.5c-0.6,0-1.1-1-1.6-1.6c0.7-0.6,1.2-1.5,2-1.7
			C89.6,35.2,90.4,36.2,91.4,37.1z"/>
	</g>
</g>
<path class="st1" d="M0.2,44.6c0-2-0.2-3.9-0.2-5.9c0.2-5.6,3.3-8.7,8.9-8.8c5.1,0,10.2-0.1,15.2,0.3c3.4,0.2,6,3.8,6.1,8.1
	c0.1,4.1,0.3,8.3-0.1,12.4c-0.7,7.3-3.4,9-9.6,9.1c-4.4,0.1-8.8,0-13.2,0c-3.1,0-6.3-2.9-6.8-6.1c-0.1-0.9-0.3-1.8-0.3-2.7
	C0.2,49,0.2,46.8,0.2,44.6C0.1,44.6,0.2,44.6,0.2,44.6z M15.7,34.3c-4,0-4.4,0.4-4.5,4.5c0,1.1,0.4,2.5-1.6,2.6
	c-1.5,0.1-1.3,1.7-1.4,2.6c-0.1,0.8,0.1,2.1,1.5,2.1c1.6,0,1.4,1,1.6,2c0.3,1.3,0,2.5,0,3.7c0,1.8-1.2,4.6,1.6,4.7
	c2.7,0.1,2.3-2.7,2.4-4.7c0-1.2,0-2.5,0-3.7c0-1.3-0.1-2.3,1.9-2c1.9,0.3,2.1-0.5,1.8-2.8c-0.3-1.9-1.7-2-3-2.1c-1.6-0.1,0-2,1-2.2
	c2.1-0.5,2.4-1.8,2.1-3.4C18.6,33.5,16.8,34.7,15.7,34.3z"/>
<g id="_x30_SuvFl.tif_2_">
	<g>
		<path class="st1" d="M30.4,56.7c3.9-0.1,7.1-0.8,10.2-3.2c-3.1-0.7-5.4-2.1-6.6-5c0.7-0.5,1.6,0.2,2.4-0.6c-3-1.4-4.9-3.6-5.1-7
			c1-0.3,1.7,0.8,2.7,0.2c-2.2-2.2-3.1-4.7-2.5-7.8c0.3-1.4,0.7-2,2-0.6c3.3,3.6,7.6,5.6,12.4,6.4c1.1,0.2,1.9,0.4,1.8-1.4
			c-0.2-2.9,1.3-5.3,3.8-6.7c2.4-1.4,5.1-1.5,7.3,0.1c1.8,1.3,3.3,1.2,5,0.3c0.4-0.2,0.7-0.3,1.4-0.5c-0.4,1.6-1.5,2.5-2.5,3.8
			c1.2-0.3,2.1-0.5,3.1-0.8c0.3,0.4-0.1,0.7-0.3,0.8c-2.4,1.7-2.8,4.1-3.1,6.8c-1.7,14.3-18.1,22.7-30.8,16
			C31.4,57.4,31.1,57.2,30.4,56.7z"/>
	</g>
</g>
<g>
	<g>
		<path class="st0" d="M1082.2,335.8c-32.7-79.1-35.2-164.1-58.8-244.7c-7.2,86.4-9.3,172.3-27.6,269.4
			c-13.3-43.6-11.8-77-12.9-109.6c-1.7-51.1-5.8-101.6-16.6-151.7c-5.4-24.9-12-36.2-41.8-28.1c-42.2,11.3-86.4,8.8-129.8,2.6
			c-19.8-2.9-28.5,0.1-26.9,25.5c4.4,70.3,4.5,140.9,5.6,211.4c0.2,15.9,4,33.3-12.5,49.9c-21.8-87.6-15.1-177.8-49.2-261.1
			c-2.2,84.7,2.6,169.5-12.5,255c-7.4-48.9-16.8-97.5-21.8-146.7c-5.4-54.1-20-105.7-34.7-157.6c-6.5-22.8-14.5-45.8-12.5-70.5
			c2.5-31.1,5.3-61.5-39.5-66.5c-12.7-1.4-21.7-15.4-24.6-29.8c-1.4-7.2-5.5-15,0.9-21.3c7.1-7,13.2-1.2,19.6,2.7
			c32.6,19.8,59.3,9.9,84.3-15.5c35.6-36.1,82.5-34.2,126.9-30.3c42.7,3.7,84.1-1.7,125.7-7c88.7-11.3,122.1-84,161.5-149.4
			c1.9-3.2,2.9-9.3,1.2-12c-8.6-13.6-25.7-29.9-8.2-42.3c13.3-9.4,24.9,10.2,34.5,21.5c5.2,6.1,11.5,9.5,19.2,2.9
			c7-6.1,5.6-14.1,3.4-20.8c-10.6-32.9-26-62.5-63.1-76.5c37.7-12.8,73.6,9.1,89.4,50.5c6.6,17.4,1.8,53.5,30.5,42
			c18.7-7.4,0.1-38.3-8.8-55.8c-8.4-16.8-23.2-30.4-34.9-45.2c55.4-6.4,99.1,41.4,83.9,102c-12,48.2-4.2,88.3,21.1,128.1
			c5.6,8.8,10.5,18.3,14.3,28.1c5.4,13.6,3.6,26.2-7.4,37.3c-11.8,11.9-22.5,4.3-32.4-1.7c-32.2-19.6-48.9-9.4-67.6,22.8
			C1091.7-38.9,1060,84.6,1081.2,221C1087.1,258.3,1082.2,297.4,1082.2,335.8z M987.9-88.4c-16.1-4.6-20.5-7.4-24.2-6.7
			c-22.4,4.4-48.4,21.6-48.3-24.4c0-15.3-21.4-20.4-36.7-14c-19.9,8.4-16.9,25.5-11.1,42.1c3.2,9.3,24.5,15.1,7.3,28
			c-7.7,5.7-20.5,10.5-28.9,8.2c-16-4.4-6.6-20.2-7.6-30.9c-2-20-1.7-42.6-30.5-38.5c-29.4,4.2-21.2,26.1-17.1,45.1
			c0.9,4-0.5,8.5-1.1,16.4c-14.2-12.3-24.6-25.7-38.3-32.1c-17.4-8.2-41.9-13.7-53.1,5.5c-11,19.2,6.2,35.7,21.7,48.2
			c15.7,12.6,36.1,9.4,54.5,14.6c-6.1,15.4-21.3,32.5-0.2,43.3c16.6,8.4,29.4-8.3,34.3-21.1c10.6-27.9,32.1-23.4,51.4-27.1
			c6.2,13.7-2.2,20.7-4,29.2c-2.4,11.3,0.1,20.9,10,27.5c8.1,5.4,17.3,6.4,25,0c8.8-7.3,13.9-20,7.7-28.2
			c-29.4-39.1,5.4-45.2,28.1-57.1C943.4-69.1,960.8-76.1,987.9-88.4z"/>
		<polygon class="st0" points="688.5,-136.2 675,-2.6 781.8,39.5 1025.5,29.3 1031.6,-126 953.3,-166.6 		"/>
	</g>
	<g>
		<path class="st0" d="M1264,295.5l10.9-0.3c14.4,0,21.5,2.9,21.5,8.8c1.4,5.9,0.7,10.1-1.9,12.6s-6.4,3.8-11.3,3.8h-66.7
			c-10.2,0-15.3-4.1-15.3-12.2s5.4-12.2,16.1-12.2l16.3,0.3c1.7,0,2.6-8.8,2.6-26.5c0-17.6-1.6-53.8-4.9-108.3s-4.9-95.5-4.9-122.9
			l1-54.2c0-11.4-0.4-21.3-1.3-29.6c-4.7,1.6-8.8,2.3-12.5,2.3c-8.3,0-12.5-4.2-12.5-12.7c0-4.3,2.7-8.1,8-11.3
			c5.4-3.2,12-5.5,20-6.9c14.9-2.6,25.9-3.9,33.1-3.9s12.3,1.4,15.4,4.3s4.7,6.2,4.7,10.1s-1.2,7.3-3.5,10.1c-2.3,2.9-5.3,4.3-9,4.3
			l-9.3-0.3c-3.5,0-6,0.7-7.7,2.2s-2.5,4.4-2.5,8.7c0,34.6,2.2,86.4,6.7,155.4s6.7,120.8,6.7,155.4v23H1264z"/>
		<path class="st0" d="M1417.3,190.6l-9.3,0.3c-5,0-9-0.8-11.9-2.5c-2.9-1.6-4.4-4.9-4.4-9.9c0-4.9,1.6-8.7,4.8-11.3
			c3.2-2.6,7.1-3.9,11.8-3.9v0.3c34.6,0,51.9,5.4,51.9,16.3l-5.7,38.7l2.6,56.3c0,10.2-0.8,18.9-2.3,26.2
			c-20.6,18.9-38.8,28.3-54.7,28.3c-8.5,0-16.3-2.3-23.4-6.9s-14-12.4-20.8-23.5s-12.6-32.1-17.6-63.2c-5-31-7.5-52.6-7.5-64.7
			s0.3-22.1,0.8-30.1s1.3-17,2.3-27.1s1.6-16.7,1.8-19.7s0.5-7.4,0.9-13s0.9-11,1.3-16.1s1.4-12.3,2.9-21.5s3.1-16.6,4.8-21.9
			c1.7-5.4,4.2-11.5,7.5-18.3s7.1-12.2,11.4-16c10.6-9,22.8-13.5,36.7-13.5s20.9,4.5,20.9,13.5c0,4.2-1.5,7.6-4.5,10.2
			c-3,2.7-6.5,4-10.5,4l-9.6-1.3c-10.4,0-18.2,12.1-23.6,36.3c-5.2,23.5-8.2,44.7-9.1,63.6c-1.6,28.9-2.3,48.1-2.3,57.7
			s0,17,0.1,22.3s0.3,11.8,0.5,19.7c0.3,7.9,0.7,14.8,1.3,20.9c0.6,6.1,1.4,12.8,2.5,20.1c1,7.4,2.3,13.8,3.8,19.2
			c1.5,5.4,3.3,10.9,5.4,16.3c2.2,5.4,4.6,9.9,7.4,13.4c6.2,7.8,13.7,11.7,22.3,11.7c15.4,0,22.9-29.8,22.6-89.5v-19.5
			C1426,191.3,1422.3,190.6,1417.3,190.6z"/>
		<path class="st0" d="M1629.5,182.3c0,101.9-20.8,152.8-62.5,152.8c-38.4,0-59.9-48.3-64.6-144.8c-0.3-9.2-0.5-18.3-0.5-27.5
			l-0.3-32.4V120c0-74.9,11-121.2,33-138.8c5.4-4.3,11.3-6.7,17.9-7c5,1.7,11.2,3.3,18.4,4.8s12.6,3,16.1,4.5
			c6.4,2.9,13.3,10.6,20.8,23c7.4,12.4,12.9,28.9,16.5,49.6c3.5,20.7,5.3,41.4,5.3,62.1v64.1H1629.5z M1531,57.3l0.8,31.1l-0.3,50.9
			c0,4.3,0.1,9.4,0.3,15.3s0.4,13.6,0.6,23.2c0.3,9.6,0.8,19.1,1.6,28.5s1.7,19.4,2.7,29.8c1,10.5,2.4,20.2,4.2,29.1
			c1.7,8.9,3.6,17,5.7,24.3c4.7,15.7,10.8,23.6,18.4,23.6c10.2,0,18-9.6,23.4-28.8c8-28.5,11.9-63.7,11.9-105.3l0.8-54.7
			c0-38.4-1.7-64.3-5.1-77.6s-6.5-23.4-9.5-30.1C1580.6,2.9,1571.7-4,1559.8-4c-0.3,0-0.7,0-1,0C1540.2-4,1531,16.4,1531,57.3z"/>
		<path class="st0" d="M1803.7,239.4l-2.9,10.6c0,4.3,1.6,14.9,4.7,31.7c3.1,16.8,4.7,27.8,4.7,33v0.5c0,8-2.7,13-8,15
			c-7.4,0-13.2-1.2-17.4-3.6c-4.2-2.4-6.2-8.5-6.2-18.3s-2.6-29.9-7.8-60.3l-16.3-1.6h-17.6c-4-1.7-11-2.6-21-2.6
			c0,0.3-0.2,2.6-0.6,6.9c-0.4,4.2-0.8,7.7-1,10.2c-0.3,2.6-0.7,6.4-1.3,11.5c-0.6,5.1-1.3,9.4-1.9,13c-0.7,3.5-1.6,7.7-2.6,12.5
			s-2.2,8.7-3.5,11.9s-2.7,6.3-4.3,9.2c-3.1,6.1-6.9,9.1-11.4,9.1s-8.5-1.3-12.1-4c-3.5-2.7-5.3-6.1-5.3-10.2
			c9.3-35.8,17.3-73.3,24-112.6s10.6-62.6,11.9-69.9c1.3-7.4,4.3-21.5,9.1-42.6s7.6-35.1,8.6-42.2s1.9-16.3,2.7-27.5
			c1.6-24.6,4.8-40.4,9.6-47.5h17.9c12.1,0,18.2,3.6,18.2,10.9c0,68.3,6.7,136.2,20,203.7c0.7,4,2,9.5,3.9,16.6
			C1801.6,218.2,1803.7,230.4,1803.7,239.4z M1767.3,228c-1-5.2-1.6-13.6-1.6-25.2c0-11.6-0.7-25.6-2.2-42.2s-3.6-35.7-6.4-57.5
			s-4.7-37.5-5.7-47.2c-2.1,10-6.1,26.8-12.2,50.3c-12.3,49-18.6,86.7-18.9,113.1C1726.4,223.4,1742.1,226.3,1767.3,228z"/>
		<path class="st0" d="M1902.5,276l1-18.2c-1.4-4.5-4.2-44.5-8.6-120c-4.3-75.5-6.7-121.6-7-138.2c-20.4-0.5-33-2.4-37.9-5.6
			s-7.3-6.5-7.3-10s1.9-6.3,5.7-8.4c3.8-2.2,7.5-3.2,11.2-3.2l72.1,4.9l8.6-0.3c11.1,0,16.6,4.2,16.6,12.7c0,4.3-1.8,7.8-5.4,10.5
			s-7.7,4-12.2,4L1915,0.7l-1,5.4c0,33.6,2.9,83.8,8.8,150.8c5.9,66.9,8.8,117.3,8.8,151c0,4.3-1.6,8-4.8,11.2
			c-3.2,3.1-7,4.7-11.3,4.7h-11.9L1902.5,276z"/>
	</g>
</g>
<g id="sQrW5B.tif">
	<g>
		<path class="st0" d="M130.9,6.9c-1.8,3.6-2.6,7.5-3.8,11.2c-0.6,2-1.6,2.7-3.6,2.6c-3.8-0.2-7.6,0.1-11.3-0.1
			c-1.9-0.1-2.8,0.5-2.8,2.6c4.8,0,9.5,0,14.3,0c0.6,0,1.3,0,1.9,0.1s1,0.9,0.5,1.1c-1.7,0.6-0.7,1.8-0.8,2.8
			c-0.1,1.7-1.8,3-3.4,2.8c-1.7-0.2-2.9-1.5-2.5-3.3c0.3-1.5-0.2-1.7-1.4-1.6c-0.6,0.1-1.3,0-1.9,0c-1.6-0.1-2.7-0.1-2.2,2.2
			c0.4,1.6-1.3,2.9-3,2.8c-1.9-0.1-3.1-1.4-2.9-3.2c0.1-0.8,0.6-1.5-0.6-2.1c-0.9-0.4-0.2-1.4,0.1-1.9c1.7-2.9,1.3-5.7,0-8.6
			c-1.1-2.6-2-5.3-2.8-8.1c-0.5-1.7-1.3-2.9-3.2-3.3c-0.5-0.1-1.1-0.4-1.6-0.6c-0.6-0.3-1.3-0.6-1-1.4s1-0.9,1.8-0.6
			c2.1,1.1,5.1,1,5.6,4.2c0.2,1,1.2,0.8,2,0.8c6.6,0,13.3,0,19.9,0c1,0,2,0,2.8,0.8C130.9,6.3,130.9,6.6,130.9,6.9z M107.6,7.4
			c-0.1,1.8,0.7,2.4,2.3,2.3c0.8-0.1,1.6,0,2.3,0c0.9,0,1.3-0.3,1.3-1.2s-0.5-1.1-1.2-1.1C110.7,7.4,109.2,7.4,107.6,7.4z
			 M128.1,7.4c-1.5,0-3.1,0-4.6,0c-0.8,0-1.1,0.4-1.1,1.2s0.4,1.1,1.1,1.1c0.8,0,1.6-0.1,2.3,0C127.5,9.8,128.2,9.2,128.1,7.4z
			 M124.4,14.5c1.5,0.4,2.2-0.5,2.2-1.9s-1.3-0.7-2-0.7c-0.9,0-2.2-0.6-2.3,1.3C122.3,14.7,123.3,14.5,124.4,14.5z M111.3,11.8
			c-0.6,0.4-2-0.7-2.1,0.8c-0.1,1.4,0.9,2.1,2.4,1.9c0.9-0.1,2,0.3,2-1.4C113.6,11.3,112.3,11.9,111.3,11.8z M117.9,9.6L117.9,9.6
			c0.3,0,0.6,0,0.8,0c0.8,0,1.6,0.1,1.6-1.1s-0.7-1.2-1.5-1.2s-1.6,0-2.3,0c-0.6,0-0.8,0.4-0.8,1s0,1.2,0.8,1.2
			C116.9,9.6,117.4,9.6,117.9,9.6z M118.1,14.4c0.9-0.2,2.3,0.5,2.3-1.4c-0.1-1.9-1.5-1.2-2.3-1.2c-0.9,0-2.3-0.7-2.4,1.2
			C115.6,15.1,117.2,14.1,118.1,14.4z M118.1,16.5L118.1,16.5c-0.6,0-1.1,0-1.7,0c-0.8,0.1-0.9,0.7-0.7,1.2c0.6,1.6,1.9,0.6,2.9,0.8
			c0.7,0.1,1.7,0.3,1.7-1c0-0.7-0.1-1.1-0.9-1.1C119,16.5,118.6,16.5,118.1,16.5z M123.6,18.7c1.2,0.3,1.4-0.6,1.5-1.4
			c0.1-1.1-0.8-0.7-1.3-0.7c-0.8-0.1-1.5,0-1.4,1.2C122.5,18.5,122.8,18.9,123.6,18.7z M112.3,27.1c-0.1-0.9-0.6-1.3-1.3-1.3
			c-0.8,0-1.3,0.6-1.3,1.4c0,0.7,0.5,1.2,1.3,1.2C111.8,28.3,112.2,27.8,112.3,27.1z M122.4,28.3c0.8-0.1,1.3-0.5,1.2-1.3
			c-0.1-0.8-0.6-1.3-1.4-1.2c-0.8,0.1-1.2,0.7-1.1,1.5C121.1,28,121.6,28.3,122.4,28.3z M111.9,16.5c-0.2,0.2-1.3-0.4-1.1,0.7
			c0.1,0.9,0.5,1.6,1.6,1.5c0.8,0,1.1-0.2,1.2-1.1C113.6,16.6,113,16.4,111.9,16.5z"/>
	</g>
</g>
<g id="sQrW5B.tif_1_">
	<g>
		<path class="st1" d="M130.9,40.9c-1.8,3.6-2.6,7.5-3.8,11.2c-0.6,2-1.6,2.7-3.6,2.6c-3.8-0.2-7.6,0.1-11.3-0.1
			c-1.9-0.1-2.8,0.5-2.8,2.6c4.8,0,9.5,0,14.3,0c0.6,0,1.3,0,1.9,0.1s1,0.9,0.5,1.1c-1.7,0.6-0.7,1.8-0.8,2.8
			c-0.1,1.7-1.8,3-3.4,2.8c-1.7-0.2-2.9-1.5-2.5-3.3c0.3-1.5-0.2-1.7-1.4-1.6c-0.6,0.1-1.3,0-1.9,0c-1.6-0.1-2.7-0.1-2.2,2.2
			c0.4,1.6-1.3,2.9-3,2.8c-1.9-0.1-3.1-1.4-2.9-3.2c0.1-0.8,0.6-1.5-0.6-2.1c-0.9-0.4-0.2-1.4,0.1-1.9c1.7-2.9,1.3-5.7,0-8.6
			c-1.1-2.6-2-5.3-2.8-8.1c-0.5-1.7-1.3-2.9-3.2-3.3c-0.5-0.1-1.1-0.4-1.6-0.6c-0.6-0.3-1.3-0.6-1-1.4c0.3-0.8,1-0.9,1.8-0.6
			c2.1,1.1,5.1,1,5.6,4.2c0.2,1,1.2,0.8,2,0.8c6.6,0,13.3,0,19.9,0c1,0,2,0,2.8,0.8C130.9,40.3,130.9,40.6,130.9,40.9z M107.6,41.4
			c-0.1,1.8,0.7,2.4,2.3,2.3c0.8-0.1,1.6,0,2.3,0c0.9,0,1.3-0.3,1.3-1.2s-0.5-1.1-1.2-1.1C110.7,41.4,109.2,41.4,107.6,41.4z
			 M128.1,41.4c-1.5,0-3.1,0-4.6,0c-0.8,0-1.1,0.4-1.1,1.2s0.4,1.1,1.1,1.1c0.8,0,1.6-0.1,2.3,0C127.5,43.8,128.2,43.2,128.1,41.4z
			 M124.4,48.5c1.5,0.4,2.2-0.5,2.2-1.9s-1.3-0.7-2-0.7c-0.9,0-2.2-0.6-2.3,1.3C122.3,48.7,123.3,48.5,124.4,48.5z M111.3,45.8
			c-0.6,0.4-2-0.7-2.1,0.8c-0.1,1.4,0.9,2.1,2.4,1.9c0.9-0.1,2,0.3,2-1.4C113.6,45.3,112.3,45.9,111.3,45.8z M117.9,43.6L117.9,43.6
			c0.3,0,0.6,0,0.8,0c0.8,0,1.6,0.1,1.6-1.1c0-1.2-0.7-1.2-1.5-1.2s-1.6,0-2.3,0c-0.6,0-0.8,0.4-0.8,1s0,1.2,0.8,1.2
			C116.9,43.6,117.4,43.6,117.9,43.6z M118.1,48.4c0.9-0.2,2.3,0.5,2.3-1.4c-0.1-1.9-1.5-1.2-2.3-1.2c-0.9,0-2.3-0.7-2.4,1.2
			C115.6,49.1,117.2,48.1,118.1,48.4z M118.1,50.5L118.1,50.5c-0.6,0-1.1,0-1.7,0c-0.8,0.1-0.9,0.7-0.7,1.2c0.6,1.6,1.9,0.6,2.9,0.8
			c0.7,0.1,1.7,0.3,1.7-1c0-0.7-0.1-1.1-0.9-1.1C119,50.5,118.6,50.5,118.1,50.5z M123.6,52.7c1.2,0.3,1.4-0.6,1.5-1.4
			c0.1-1.1-0.8-0.7-1.3-0.7c-0.8-0.1-1.5,0-1.4,1.2C122.5,52.5,122.8,52.9,123.6,52.7z M112.3,61.1c-0.1-0.9-0.6-1.3-1.3-1.3
			c-0.8,0-1.3,0.6-1.3,1.4c0,0.7,0.5,1.2,1.3,1.2C111.8,62.3,112.2,61.8,112.3,61.1z M122.4,62.3c0.8-0.1,1.3-0.5,1.2-1.3
			c-0.1-0.8-0.6-1.3-1.4-1.2s-1.2,0.7-1.1,1.5C121.1,62,121.6,62.3,122.4,62.3z M111.9,50.5c-0.2,0.2-1.3-0.4-1.1,0.7
			c0.1,0.9,0.5,1.6,1.6,1.5c0.8,0,1.1-0.2,1.2-1.1C113.6,50.6,113,50.4,111.9,50.5z"/>
	</g>
</g>
<g id="WY7rae.tif">
	<g>
		<path class="st0" d="M136.9,30c0-2.5,0-5.1,0-7.6c0.2-0.5,0.4-1,0.6-1.5c1.5-3.7,5-6,8.9-5.7s7.4,3.1,8,6.9c0.4,2.5,0.1,5,0.1,7.7
			c-0.9,0-1.9,0-2.8,0C146.8,29.9,141.9,29.9,136.9,30z"/>
		<path class="st0" d="M147.4,0c4.1,1.8,6,4.6,5.6,8s-3.2,6.1-6.5,6.4c-3.3,0.3-6.5-1.7-7.5-4.9c-1.1-3.4,0.2-6.7,3.3-8.5
			c0.6-0.4,1.2-0.7,1.9-1C145.2,0,146.3,0,147.4,0z"/>
	</g>
</g>
<g id="WY7rae.tif_1_">
	<g>
		<path class="st1" d="M136.9,61.5c0-2.5,0-5.1,0-7.6c0.2-0.5,0.4-1,0.6-1.5c1.5-3.7,5-6,8.9-5.7s7.4,3.1,8,6.9
			c0.4,2.5,0.1,5,0.1,7.7c-0.9,0-1.9,0-2.8,0C146.8,61.4,141.9,61.4,136.9,61.5z"/>
		<path class="st1" d="M147.4,31.5c4.1,1.8,6,4.6,5.6,8s-3.2,6.1-6.5,6.4c-3.3,0.3-6.5-1.7-7.5-4.9c-1.1-3.4,0.2-6.7,3.3-8.5
			c0.6-0.4,1.2-0.7,1.9-1C145.2,31.5,146.3,31.5,147.4,31.5z"/>
	</g>
</g>
</svg>
