<svg id="Layer_1" data-name="Layer 1" xmlns="http://www.w3.org/2000/svg" viewBox="0 0 500 500"><defs><style>.cls-1{fill:#ffda57;}</style></defs><title>illustratieArtboard 1</title><path class="cls-1" d="M49.11,66.08c-2.47-6-2.66-12.4-4.44-18.5-.55,6.54-.71,13-2.09,20.37a28.4,28.4,0,0,1-1-8.29,64.13,64.13,0,0,0-1.26-11.47c-.4-1.88-.9-2.73-3.16-2.12a24.35,24.35,0,0,1-9.81.19c-1.5-.21-2.16,0-2,1.93.33,5.32.34,10.65.42,16,0,1.2.31,2.52-.94,3.77-1.65-6.62-1.14-13.44-3.72-19.73-.17,6.4.19,12.81-1,19.27-.56-3.69-1.27-7.37-1.64-11.08a68.87,68.87,0,0,0-2.62-11.92,15.09,15.09,0,0,1-1-5.33c.19-2.36.4-4.65-3-5C11,34,10.32,33,10.1,31.87c-.11-.54-.41-1.13.07-1.61s1-.09,1.48.2c2.46,1.5,4.49.75,6.37-1.17,2.7-2.73,6.24-2.58,9.6-2.29a44.25,44.25,0,0,0,9.5-.53c6.7-.85,9.23-6.35,12.21-11.29a1.1,1.1,0,0,0,.09-.91c-.66-1-2-2.26-.62-3.2,1-.71,1.88.77,2.61,1.62.39.46.87.72,1.45.22a1.34,1.34,0,0,0,.25-1.57c-.8-2.49-2-4.73-4.76-5.78,2.85-1,5.56.68,6.76,3.82.5,1.31.13,4,2.3,3.17,1.41-.56,0-2.89-.66-4.22a21,21,0,0,0-2.64-3.41c4.19-.49,7.49,3.13,6.34,7.71a11.7,11.7,0,0,0,1.6,9.68,13.22,13.22,0,0,1,1.08,2.12,2.43,2.43,0,0,1-.56,2.82c-.89.9-1.7.32-2.45-.13-2.43-1.48-3.69-.71-5.1,1.72-5.17,8.9-7.57,18.24-6,28.55C49.49,60.22,49.11,63.18,49.11,66.08ZM42,34c-1.22-.35-1.55-.56-1.83-.51-1.7.34-3.66,1.64-3.65-1.84,0-1.16-1.62-1.55-2.77-1.06-1.51.64-1.28,1.93-.84,3.19.24.7,1.85,1.13.54,2.11a3,3,0,0,1-2.18.62c-1.21-.33-.5-1.53-.58-2.33-.15-1.52-.13-3.22-2.3-2.92s-1.6,2-1.29,3.41A6.12,6.12,0,0,1,27,35.93a15.2,15.2,0,0,0-2.89-2.42c-1.32-.62-3.17-1-4,.42s.46,2.69,1.64,3.63,2.73.71,4.12,1.1c-.46,1.16-1.61,2.46,0,3.27,1.26.64,2.23-.62,2.6-1.59.8-2.11,2.42-1.77,3.88-2.05.47,1-.17,1.57-.3,2.21a1.84,1.84,0,0,0,.75,2.08,1.5,1.5,0,0,0,1.89,0,1.68,1.68,0,0,0,.58-2.14c-2.22-2.95.41-3.41,2.13-4.31C38.62,35.48,39.94,35,42,34Z"/><polygon class="cls-1" points="19.36 30.4 18.33 40.5 26.41 43.69 44.83 42.91 45.29 31.18 39.37 28.1 19.36 30.4"/><path class="cls-1" d="M62.85,63l.83,0c1.08,0,1.63.23,1.63.67a1,1,0,0,1-.15.95,1.21,1.21,0,0,1-.86.29h-5c-.77,0-1.15-.31-1.15-.93s.4-.92,1.21-.92l1.24,0c.13,0,.19-.66.19-2s-.12-4.06-.37-8.19S60,45.68,60,43.62l.08-4.1c0-.87,0-1.61-.1-2.24a3,3,0,0,1-.94.18.84.84,0,0,1-.94-1,1,1,0,0,1,.6-.86,4.62,4.62,0,0,1,1.51-.52,16.89,16.89,0,0,1,2.51-.29,1.71,1.71,0,0,1,1.16.32,1,1,0,0,1,.36.77,1.14,1.14,0,0,1-.27.76.83.83,0,0,1-.68.33l-.7,0a.86.86,0,0,0-.58.16.89.89,0,0,0-.19.66q0,3.91.51,11.75t.51,11.75Z"/><path class="cls-1" d="M74.45,55.11l-.71,0a1.77,1.77,0,0,1-.9-.19.76.76,0,0,1-.34-.74,1,1,0,0,1,.37-.86,1.4,1.4,0,0,1,.89-.29v0c2.61,0,3.92.41,3.92,1.24l-.43,2.92.2,4.25a9.45,9.45,0,0,1-.18,2q-2.34,2.13-4.14,2.13a3.13,3.13,0,0,1-1.76-.52,5.27,5.27,0,0,1-1.57-1.77,14.82,14.82,0,0,1-1.34-4.78,36.45,36.45,0,0,1-.57-4.89q0-1.38.06-2.28c0-.6.1-1.28.18-2s.12-1.26.14-1.49,0-.55.07-1,.06-.83.09-1.21.11-.93.22-1.63A11.71,11.71,0,0,1,69,42.34,10.74,10.74,0,0,1,69.58,41a3.87,3.87,0,0,1,.86-1.21,4.17,4.17,0,0,1,2.78-1c1,0,1.58.34,1.58,1a1,1,0,0,1-.34.78,1.19,1.19,0,0,1-.8.3l-.72-.1c-.79,0-1.38.92-1.79,2.75a29.46,29.46,0,0,0-.69,4.8c-.11,2.19-.17,3.64-.17,4.37s0,1.29,0,1.68,0,.9,0,1.5,0,1.12.09,1.57.11,1,.19,1.52a11.07,11.07,0,0,0,.29,1.46,9.85,9.85,0,0,0,.41,1.23,3.82,3.82,0,0,0,.56,1,2.09,2.09,0,0,0,1.68.88q1.75,0,1.71-6.76V55.27A1.58,1.58,0,0,0,74.45,55.11Z"/><path class="cls-1" d="M90.49,54.48Q90.49,66,85.76,66q-4.35,0-4.88-10.94c0-.69,0-1.39,0-2.08l0-2.45v-.79q0-8.49,2.49-10.49a2.33,2.33,0,0,1,1.35-.53,11.22,11.22,0,0,0,1.4.36,6.4,6.4,0,0,1,1.21.35,4.22,4.22,0,0,1,1.57,1.73,11,11,0,0,1,1.25,3.75,27.53,27.53,0,0,1,.4,4.7ZM83,45l.06,2.35,0,3.85c0,.32,0,.71,0,1.15s0,1,0,1.76.06,1.44.12,2.16.13,1.46.21,2.25.18,1.53.31,2.2.28,1.28.43,1.83c.36,1.19.82,1.79,1.4,1.79.77,0,1.36-.73,1.76-2.18a30.15,30.15,0,0,0,.9-8l.06-4.14A29.35,29.35,0,0,0,88,44.22,15.48,15.48,0,0,0,87.23,42a2.16,2.16,0,0,0-2-1.55h-.07Q83,40.4,83,45Z"/><path class="cls-1" d="M103.65,58.8l-.21.8a17.29,17.29,0,0,0,.35,2.39,18.45,18.45,0,0,1,.35,2.5v0c0,.61-.2,1-.61,1.14a2.64,2.64,0,0,1-1.31-.27c-.31-.19-.47-.65-.47-1.39a35.67,35.67,0,0,0-.59-4.56l-1.24-.11H98.59a4.44,4.44,0,0,0-1.59-.2s0,.2,0,.52-.06.58-.08.77l-.09.88c0,.38-.1.71-.15,1s-.12.58-.2.94a5.54,5.54,0,0,1-.26.9,7.5,7.5,0,0,1-.33.7c-.23.46-.52.69-.86.69a1.49,1.49,0,0,1-.91-.31.92.92,0,0,1-.4-.77c.7-2.71,1.31-5.55,1.81-8.52s.81-4.73.9-5.28.33-1.63.69-3.22.58-2.65.65-3.19.14-1.23.2-2.08a8.38,8.38,0,0,1,.73-3.59H100c.92,0,1.38.28,1.38.83a79.13,79.13,0,0,0,1.51,15.4c0,.3.15.72.29,1.25A11.57,11.57,0,0,1,103.65,58.8Zm-2.74-.87a10.54,10.54,0,0,1-.12-1.9c0-.87-.06-1.94-.17-3.19s-.27-2.69-.48-4.34-.35-2.84-.43-3.57c-.16.76-.47,2-.92,3.8a39.86,39.86,0,0,0-1.43,8.56A9.4,9.4,0,0,0,100.91,57.93Z"/><path class="cls-1" d="M111.12,61.56l.08-1.37c-.1-.34-.32-3.36-.64-9.07s-.51-9.19-.53-10.45a7,7,0,0,1-2.87-.42c-.36-.24-.55-.49-.55-.75a.73.73,0,0,1,.43-.64,1.76,1.76,0,0,1,.85-.25l5.45.38.65,0c.83,0,1.25.32,1.25,1a.93.93,0,0,1-.41.79,1.52,1.52,0,0,1-.92.31l-1.84-.28-.08.41q0,3.81.66,11.4T113.32,64a1.15,1.15,0,0,1-.36.84,1.2,1.2,0,0,1-.85.35h-.91Z"/><g id="WY7rae.tif"><path class="cls-1" d="M5.07,155.64V143c.33-.83.66-1.65,1-2.47A14.9,14.9,0,0,1,20.94,131c6.46.45,12.39,5.16,13.35,11.47.62,4.09.12,8.35.12,12.87-1.56,0-3.15,0-4.73,0Z"/><path class="cls-1" d="M22.54,105.64c6.86,3,10.06,7.61,9.37,13.33A12.25,12.25,0,0,1,21,129.69a12,12,0,0,1-12.49-8.25A11.78,11.78,0,0,1,14,107.27c1-.59,2.07-1.09,3.11-1.63Z"/></g><g id="s1tpFF.tif"><path class="cls-1" d="M182.54,193.33h22.4c7.66,1.61,12.61,5.84,12.86,14.07.23,7.44.34,14.9,0,22.34-.35,7.77-5.33,12.88-13,13.27s-15.37.42-23,.1c-7.49-.3-12.41-4.81-13.1-12.3a211.43,211.43,0,0,1-.5-21.22c.06-9.94,3.71-14.08,13.43-15.78A3.74,3.74,0,0,0,182.54,193.33Zm10.17,45.5v-.3c3.84,0,7.7.2,11.52-.05,5.65-.36,8.63-2.86,8.91-8.42.38-7.9.31-15.84-.1-23.74-.27-5.13-2.65-7.56-7.73-7.83-8-.43-16.05-.4-24.07-.15-5,.15-7.85,3-8.06,8-.33,7.78-.42,15.59-.09,23.37.26,6,3.8,8.94,9.89,9.13C186.22,238.91,189.47,238.83,192.71,238.83Z"/><path class="cls-1" d="M205.8,218.48c0,7.31-5.72,12.76-13.27,12.68-6.76-.07-12.27-5.95-12.2-13a12.74,12.74,0,0,1,25.47.34Zm-4.45-.12a8.25,8.25,0,0,0-8.29-8.25,8.63,8.63,0,0,0-8.29,8.37,8.29,8.29,0,0,0,16.58-.12Z"/><path class="cls-1" d="M210.57,205.28c-2,1.25-3.24,2.56-4.38,2.5-.94-.05-1.79-1.72-2.69-2.67,1.11-1,2.08-2.47,3.38-2.86C207.55,202.05,208.79,203.75,210.57,205.28Z"/></g><g id="sQrW5B.tif"><path class="cls-1" d="M104.38,116.31c-3,5.94-4.36,12.43-6.33,18.71-1,3.35-2.67,4.44-6.08,4.3-6.28-.26-12.6.11-18.88-.15-3.16-.13-4.68.82-4.66,4.35H92.19a17,17,0,0,1,3.2.15c.92.18,1.6,1.51.91,1.77-2.82,1-1.21,3-1.34,4.66a5.23,5.23,0,0,1-5.69,4.68c-2.91-.37-4.77-2.5-4.11-5.5.55-2.49-.33-2.84-2.37-2.68a21.5,21.5,0,0,1-3.21,0c-2.62-.2-4.48-.18-3.61,3.6.61,2.69-2.09,4.83-5,4.71-3.17-.14-5.23-2.34-4.8-5.33.19-1.38,1-2.56-1-3.53-1.42-.72-.41-2.32.09-3.18,2.84-4.85,2.15-9.47,0-14.39A115.27,115.27,0,0,1,60.7,115c-.84-2.84-2.2-4.87-5.26-5.51a13.49,13.49,0,0,1-2.65-1c-1-.43-2.16-.95-1.71-2.28s1.74-1.56,3-.95c3.5,1.78,8.43,1.59,9.31,7,.28,1.74,2,1.3,3.26,1.3q16.56,0,33.14,0c1.7,0,3.33,0,4.64,1.32Zm-38.9.84c-.15,2.94,1.11,4.08,3.81,3.81a28.19,28.19,0,0,1,3.9,0c1.45,0,2.18-.46,2.12-2s-.79-1.78-2-1.76C70.68,117.17,68.09,117.15,65.48,117.15Zm34.19,0c-2.55,0-5.12,0-7.69,0-1.38,0-1.82.6-1.83,1.92s.63,1.88,1.9,1.87a33.45,33.45,0,0,1,3.88,0C98.61,121.24,99.91,120.17,99.67,117.15ZM93.52,129c2.48.63,3.69-.92,3.65-3.18s-2.17-1.19-3.3-1.22c-1.48,0-3.68-1-3.76,2.09C90.05,129.38,91.67,129.06,93.52,129Zm-21.94-4.53c-1,.65-3.36-1.15-3.46,1.37-.08,2.33,1.43,3.53,4,3.21,1.55-.2,3.35.47,3.35-2.27C75.42,123.73,73.29,124.73,71.58,124.47Zm11.09-3.6v.06h1.41c1.29,0,2.63.18,2.65-1.85s-1.16-2-2.55-1.94-2.59,0-3.88,0c-1.06,0-1.38.68-1.4,1.63s0,2,1.31,2.06C81,120.93,81.85,120.87,82.67,120.87Zm.26,8c1.56-.36,3.89.89,3.8-2.27s-2.44-2-3.9-2-3.87-1.13-3.94,2C78.81,130,81.47,128.32,82.93,128.83ZM83,132.4v0c-1,0-1.9-.07-2.84,0A1.43,1.43,0,0,0,79,134.52c.94,2.61,3.23,1.08,4.89,1.33,1.13.16,2.78.54,2.84-1.59,0-1.08-.24-1.87-1.52-1.86ZM92.21,136c2,.52,2.38-1,2.55-2.36.22-1.81-1.32-1.13-2.17-1.23-1.39-.15-2.54.05-2.41,2C90.28,135.76,90.81,136.28,92.21,136ZM73.3,150a2.13,2.13,0,0,0-2.12-2.19,2.1,2.1,0,0,0-2.2,2.28A1.87,1.87,0,0,0,71.07,152,2.06,2.06,0,0,0,73.3,150Zm16.8,2c1.26-.15,2.15-.86,2-2.23a2.14,2.14,0,1,0-4.25.47C88,151.5,88.76,152.09,90.1,152ZM72.68,132.41c-.42.39-2.11-.71-1.9,1.22.16,1.48.75,2.63,2.64,2.55,1.28-.05,1.89-.41,2-1.77C75.5,132.56,74.48,132.25,72.68,132.41Z"/></g><path class="cls-1" d="M85.91,216.38c0-3.28-.39-6.57-.3-9.85.27-9.26,5.58-14.57,14.87-14.61,8.45,0,16.92-.11,25.35.46,5.69.38,10,6.37,10.19,13.57a170.3,170.3,0,0,1-.15,20.71c-1.1,12.12-5.75,15-16,15.18-7.35.1-14.71,0-22.06,0-5.14,0-10.53-4.86-11.34-10.11a36.33,36.33,0,0,1-.54-4.5c-.08-3.62,0-7.25,0-10.87Zm25.93-17.16c-6.6,0-7.25.71-7.54,7.53-.07,1.89.74,4.16-2.7,4.37-2.55.16-2.2,2.75-2.35,4.25s.15,3.53,2.53,3.49c2.69,0,2.32,1.67,2.66,3.35.43,2.1,0,4.1,0,6.15,0,2.95-2,7.66,2.74,7.81,4.53.13,3.91-4.57,3.94-7.9,0-2.07,0-4.14-.08-6.2-.06-2.23-.1-3.79,3.23-3.31s3.57-.79,2.94-4.73c-.5-3.14-2.81-3.42-5-3.49-2.72-.08,0-3.3,1.66-3.65,3.49-.77,4.07-3,3.47-5.71C116.54,197.83,113.56,199.8,111.84,199.22Z"/><g id="_0SuvFl.tif" data-name="0SuvFl.tif"><path class="cls-1" d="M1.27,238c6.43-.21,11.8-1.33,17-5.29-5.24-1.16-9-3.57-10.95-8.34,1.25-.91,2.71.26,4-1.06-5-2.32-8.25-5.93-8.52-11.65,1.64-.48,2.88,1.27,4.59.39-3.62-3.66-5.25-7.91-4.15-13,.52-2.41,1.25-3.32,3.37-1,5.56,6,12.62,9.33,20.63,10.7,1.81.31,3.14.67,2.92-2.37-.36-4.9,2.2-8.76,6.4-11.21,4-2.34,8.53-2.5,12.23.2,3,2.2,5.44,1.92,8.31.49.59-.3,1.24-.5,2.29-.9-.67,2.69-2.5,4.16-4.18,6.35L60.4,200c.43.66-.14,1.11-.49,1.36-3.95,2.81-4.65,6.85-5.19,11.4-2.86,23.82-30.09,37.85-51.31,26.63C2.93,239.15,2.5,238.8,1.27,238Z"/></g></svg>